#N canvas 0 23 1440 855 10;
#X obj 35 313 inlet;
#X obj 35 741 *~;
#X obj 35 764 outlet~;
#X text 15 293 carrier freq;
#X obj 171 316 inlet;
#X obj 35 337 sig~;
#X obj 171 338 sig~;
#X obj 980 509 cnv 15 360 220 empty empty empty 20 12 0 14 -233017
-66577 0;
#X text 1112 565 attack;
#X text 1164 565 decay;
#X obj 1270 584 inlet;
#X text 1268 565 release;
#X obj 1064 574 inlet;
#X text 1054 555 velocity;
#X text 1210 545 note off;
#X obj 1049 704 vline~;
#X msg 1049 677 0 0 0 \, \$1 \$2 0 \, 0 \$3 \$2;
#X obj 1049 643 pack f f f, f 17;
#X obj 1049 616 f;
#X obj 1114 584 inlet;
#X obj 1099 616 f;
#X obj 1164 584 inlet;
#X obj 1149 616 f;
#X obj 1004 574 t b b b;
#X msg 1255 667 0 \$1;
#X obj 1255 614 f;
#X obj 1004 552 inlet b;
#X obj 1217 564 inlet b;
#X text 986 533 note on/trigger;
#X obj 255 39 cnv 15 250 220 empty empty empty 20 12 0 14 -233017 -66577
0;
#X obj 390 107 inlet;
#X obj 284 107 inlet;
#X obj 338 107 inlet;
#X text 277 88 trigger;
#X text 338 88 attack;
#X text 390 87 decay;
#X obj 323 223 vline~;
#X obj 323 154 f;
#X obj 375 154 f;
#X text 439 88 max;
#X obj 436 107 inlet;
#X obj 421 154 f;
#X obj 323 176 pack f f f;
#X obj 284 129 t b b b;
#X msg 323 200 0 0 0 \, \$3 \$1 0 \, 0 \$2 \$1;
#X obj 35 521 *~;
#X obj 1302 335 inlet~;
#X obj 308 331 +~;
#X obj 171 521 *~;
#X obj 251 286 inlet~;
#X text 1111 518 amp envelope;
#X obj 444 316 inlet;
#X obj 444 338 sig~;
#X obj 444 521 *~;
#X obj 528 39 cnv 15 250 220 empty empty empty 20 12 0 14 -233017 -66577
0;
#X obj 663 107 inlet;
#X obj 557 107 inlet;
#X obj 611 107 inlet;
#X text 550 88 trigger;
#X text 611 88 attack;
#X text 663 87 decay;
#X obj 596 223 vline~;
#X obj 596 154 f;
#X obj 648 154 f;
#X text 712 88 max;
#X obj 709 107 inlet;
#X obj 694 154 f;
#X obj 596 176 pack f f f;
#X obj 557 129 t b b b;
#X msg 596 200 0 0 0 \, \$3 \$1 0 \, 0 \$2 \$1;
#X obj 581 331 +~;
#X obj 524 286 inlet~;
#X text 698 296 audio input;
#X obj 717 316 inlet~;
#X obj 801 39 cnv 15 250 220 empty empty empty 20 12 0 14 -233017 -66577
0;
#X obj 936 107 inlet;
#X obj 830 107 inlet;
#X obj 884 107 inlet;
#X text 823 88 trigger;
#X text 884 88 attack;
#X text 936 87 decay;
#X obj 869 223 vline~;
#X obj 869 154 f;
#X obj 921 154 f;
#X text 985 88 max;
#X obj 982 107 inlet;
#X obj 967 154 f;
#X obj 869 176 pack f f f;
#X obj 830 129 t b b b;
#X msg 869 200 0 0 0 \, \$3 \$1 0 \, 0 \$2 \$1;
#X obj 854 331 +~;
#X obj 797 286 inlet~;
#X text 609 52 mod index 2 env;
#X obj 444 763 outlet~;
#X obj 444 741 *~;
#X obj 854 763 outlet~;
#X obj 854 741 *~;
#X obj 1064 595 / 127;
#X text 336 52 mod index 3 env;
#X text 882 52 mod index 1 env;
#X obj 1323 415 inlet~;
#X obj 308 521 +~;
#X obj 581 521 +~;
#X obj 854 521 +~;
#X text 421 296 mod 2 freq;
#X text 148 296 mod 3 freq;
#X text 236 266 mod 3 index;
#X text 509 266 mod 2 index;
#X text 782 266 mod 1 index;
#X text 1277 395 additional mod index \, all;
#X text 1247 315 frequency multiplier \, all;
#X obj 35 560 uoscil/headless/triplecascadesinfmosc, f 137;
#X connect 0 0 5 0;
#X connect 1 0 2 0;
#X connect 4 0 6 0;
#X connect 5 0 45 0;
#X connect 6 0 48 0;
#X connect 10 0 25 1;
#X connect 12 0 97 0;
#X connect 15 0 1 1;
#X connect 15 0 94 1;
#X connect 15 0 96 1;
#X connect 16 0 15 0;
#X connect 17 0 16 0;
#X connect 18 0 17 0;
#X connect 19 0 20 1;
#X connect 20 0 17 1;
#X connect 21 0 22 1;
#X connect 22 0 17 2;
#X connect 23 0 18 0;
#X connect 23 1 20 0;
#X connect 23 2 22 0;
#X connect 24 0 15 0;
#X connect 25 0 24 0;
#X connect 26 0 23 0;
#X connect 27 0 25 0;
#X connect 30 0 38 1;
#X connect 31 0 43 0;
#X connect 32 0 37 1;
#X connect 36 0 47 1;
#X connect 37 0 42 0;
#X connect 38 0 42 1;
#X connect 40 0 41 1;
#X connect 41 0 42 2;
#X connect 42 0 44 0;
#X connect 43 0 37 0;
#X connect 43 1 38 0;
#X connect 43 2 41 0;
#X connect 44 0 36 0;
#X connect 45 0 111 0;
#X connect 46 0 45 1;
#X connect 46 0 48 1;
#X connect 46 0 53 1;
#X connect 47 0 101 0;
#X connect 48 0 111 1;
#X connect 49 0 47 0;
#X connect 51 0 52 0;
#X connect 52 0 53 0;
#X connect 53 0 111 3;
#X connect 55 0 63 1;
#X connect 56 0 68 0;
#X connect 57 0 62 1;
#X connect 61 0 70 1;
#X connect 62 0 67 0;
#X connect 63 0 67 1;
#X connect 65 0 66 1;
#X connect 66 0 67 2;
#X connect 67 0 69 0;
#X connect 68 0 62 0;
#X connect 68 1 63 0;
#X connect 68 2 66 0;
#X connect 69 0 61 0;
#X connect 70 0 102 0;
#X connect 71 0 70 0;
#X connect 73 0 111 5;
#X connect 75 0 83 1;
#X connect 76 0 88 0;
#X connect 77 0 82 1;
#X connect 81 0 90 1;
#X connect 82 0 87 0;
#X connect 83 0 87 1;
#X connect 85 0 86 1;
#X connect 86 0 87 2;
#X connect 87 0 89 0;
#X connect 88 0 82 0;
#X connect 88 1 83 0;
#X connect 88 2 86 0;
#X connect 89 0 81 0;
#X connect 90 0 103 0;
#X connect 91 0 90 0;
#X connect 94 0 93 0;
#X connect 96 0 95 0;
#X connect 97 0 18 1;
#X connect 100 0 103 1;
#X connect 100 0 102 1;
#X connect 100 0 101 1;
#X connect 101 0 111 2;
#X connect 102 0 111 4;
#X connect 103 0 111 6;
#X connect 111 0 1 0;
#X connect 111 1 94 0;
#X connect 111 2 96 0;
