#N canvas 0 23 1280 699 10;
#X text 354 169 fundamental;
#X text 461 151 amp factor;
#X obj 580 207 inlet;
#X text 536 188 overtone series messages;
#X obj 379 344 outlet~;
#X obj 379 211 sig~;
#X obj 379 189 inlet;
#X obj 479 168 inlet;
#X msg 479 271 \$1 10;
#X obj 479 293 line~;
#X obj 675 227 inlet~;
#X text 619 207 fundamental freq multiplier;
#X obj 379 243 *~;
#X obj 379 322 uoscil/headless/sineovertoneosc 10;
#X connect 2 0 13 2;
#X connect 5 0 12 0;
#X connect 6 0 5 0;
#X connect 7 0 8 0;
#X connect 8 0 9 0;
#X connect 9 0 13 1;
#X connect 10 0 12 1;
#X connect 12 0 13 0;
#X connect 13 0 4 0;
