#N canvas 0 23 1280 699 10;
#X text 354 169 fundamental;
#X text 436 151 amp factor;
#X obj 604 227 inlet;
#X text 560 208 overtone series messages;
#X obj 379 344 outlet~;
#X obj 379 211 sig~;
#X obj 379 189 inlet;
#X obj 454 168 inlet;
#X msg 454 271 \$1 10;
#X obj 454 293 line~;
#X obj 699 247 inlet~;
#X text 643 227 fundamental freq multiplier;
#X obj 379 263 *~;
#X obj 379 322 uoscil/headless/sineovertonerandosc 10;
#X obj 529 168 inlet;
#X text 511 151 detune factor;
#X connect 2 0 13 3;
#X connect 5 0 12 0;
#X connect 6 0 5 0;
#X connect 7 0 8 0;
#X connect 8 0 9 0;
#X connect 9 0 13 1;
#X connect 10 0 12 1;
#X connect 12 0 13 0;
#X connect 13 0 4 0;
#X connect 14 0 13 2;
