#N canvas 13 23 1267 751 10;
#X obj 65 293 inlet;
#X obj 65 671 *~;
#X obj 65 704 outlet~;
#X text 45 273 carrier freq;
#X obj 127 276 inlet;
#X text 104 256 modulator freq;
#X text 176 276 mod index;
#X obj 65 317 sig~;
#X obj 127 298 sig~;
#X obj 314 387 sig~ 0;
#X text 961 283 mod frequency multiplier;
#X obj 127 320 *~;
#X obj 315 448 cnv 15 400 250 empty empty empty 20 12 0 14 -233017
-66577 0;
#X text 487 515 attack;
#X text 539 515 decay;
#X obj 645 534 inlet;
#X text 643 515 release;
#X obj 439 534 inlet;
#X text 429 515 velocity;
#X text 585 495 note off;
#X obj 424 654 vline~;
#X msg 424 627 0 0 0 \, \$1 \$2 0 \, 0 \$3 \$2;
#X obj 424 593 pack f f f;
#X obj 424 566 f;
#X obj 489 534 inlet;
#X obj 474 566 f;
#X obj 539 534 inlet;
#X obj 524 566 f;
#X obj 379 534 t b b b;
#X msg 630 617 0 \$1;
#X obj 630 564 f;
#X obj 379 512 inlet b;
#X obj 592 514 inlet b;
#X text 361 493 note on/trigger;
#X text 466 460 envelope 1 - adr;
#X obj 693 18 cnv 15 300 250 empty empty empty 20 12 0 14 -233017 -66577
0;
#X obj 856 91 inlet;
#X obj 750 91 inlet;
#X obj 804 91 inlet;
#X text 743 72 trigger;
#X text 804 72 attack;
#X text 772 31 envelope 2 - ad;
#X text 856 71 decay;
#X obj 789 207 vline~;
#X obj 789 138 f;
#X obj 841 138 f;
#X text 905 72 max;
#X obj 902 91 inlet;
#X obj 887 138 f;
#X obj 789 160 pack f f f;
#X obj 750 113 t b b b;
#X msg 789 184 0 0 0 \, \$3 \$1 0 \, 0 \$2 \$1;
#X obj 65 382 *~;
#X obj 1112 365 inlet~;
#X obj 1006 303 inlet~;
#X obj 189 340 +~;
#X text 1057 345 all frequency multiplier;
#X obj 127 382 *~;
#X obj 189 296 inlet~;
#X obj 65 410 uoscil/headless/pmosc, f 42;
#X connect 0 0 7 0;
#X connect 1 0 2 0;
#X connect 4 0 8 0;
#X connect 7 0 52 0;
#X connect 8 0 11 0;
#X connect 9 0 59 4;
#X connect 11 0 57 0;
#X connect 15 0 30 1;
#X connect 17 0 23 1;
#X connect 20 0 1 1;
#X connect 21 0 20 0;
#X connect 22 0 21 0;
#X connect 23 0 22 0;
#X connect 24 0 25 1;
#X connect 25 0 22 1;
#X connect 26 0 27 1;
#X connect 27 0 22 2;
#X connect 28 0 23 0;
#X connect 28 1 25 0;
#X connect 28 2 27 0;
#X connect 29 0 20 0;
#X connect 30 0 29 0;
#X connect 31 0 28 0;
#X connect 32 0 30 0;
#X connect 36 0 45 1;
#X connect 37 0 50 0;
#X connect 38 0 44 1;
#X connect 43 0 55 1;
#X connect 44 0 49 0;
#X connect 45 0 49 1;
#X connect 47 0 48 1;
#X connect 48 0 49 2;
#X connect 49 0 51 0;
#X connect 50 0 44 0;
#X connect 50 1 45 0;
#X connect 50 2 48 0;
#X connect 51 0 43 0;
#X connect 52 0 59 0;
#X connect 53 0 52 1;
#X connect 53 0 57 1;
#X connect 54 0 11 1;
#X connect 55 0 59 2;
#X connect 57 0 59 1;
#X connect 58 0 55 0;
#X connect 59 0 1 0;
