#N canvas 1 338 636 538 10;
#X obj 153 173 inlet b;
#X text 30 155 load sample;
#X text 150 155 trigger;
#X obj 270 147 inlet f;
#X text 267 129 freq;
#X obj 153 239 *~, f 11;
#X obj 216 107 inlet f;
#X text 203 89 amp factor;
#X obj 387 137 inlet f;
#X obj 387 161 sig~;
#X text 371 120 decay factor;
#X obj 153 315 outlet~;
#X obj 48 173 inlet s;
#X obj 447 66 samplerate~;
#X obj 447 44 loadbang;
#X obj 270 233 sig~;
#X obj 270 201 expr (1000 / $f1) - (1000/$f2);
#X obj 504 130 inlet f;
#X text 498 114 cutoff;
#X obj 153 269 ufilter/headless/resonatorinlinebp, f 59;
#N canvas 0 23 658 646 sample 0;
#X obj 38 51 inlet;
#X obj 258 51 inlet;
#X obj 258 72 openpanel;
#X obj 258 198 soundfiler;
#X obj 258 94 t s b, f 8;
#X obj 258 144 pack s f;
#X obj 303 119 f \$0;
#X msg 258 166 read -resize -maxsize 7.938e+07 \$1 \$2-soundfile_l
\$2-soundfile_r;
#N canvas 664 292 536 319 (subpatch) 0;
#X array \$0-soundfile_l 13553 float 2;
#X coords 0 319 13553 318 200 140 0;
#X restore 258 258 graph;
#N canvas 0 22 450 278 (subpatch) 0;
#X array \$0-soundfile_r 13553 float 2;
#X coords 0 278 13553 277 200 140 0;
#X restore 258 282 graph;
#X text 297 258 \$0-soundfile_l;
#X text 297 283 \$0-soundfile_r;
#X obj 258 219 s \$0-num_samples;
#X obj 38 72 tabplay~ \$0-soundfile_l;
#X obj 48 92 tabplay~ \$0-soundfile_r;
#X obj 48 113 outlet~;
#X obj 38 133 outlet~;
#X connect 0 0 13 0;
#X connect 1 0 2 0;
#X connect 2 0 4 0;
#X connect 3 0 12 0;
#X connect 4 0 5 0;
#X connect 4 1 6 0;
#X connect 5 0 7 0;
#X connect 6 0 5 1;
#X connect 7 0 3 0;
#X connect 13 0 16 0;
#X connect 14 0 15 0;
#X restore 48 193 pd sample playback;
#X obj 98 223 *~ 0.5;
#X connect 0 0 20 1;
#X connect 3 0 16 0;
#X connect 5 0 19 0;
#X connect 6 0 5 1;
#X connect 8 0 9 0;
#X connect 9 0 19 2;
#X connect 12 0 20 0;
#X connect 13 0 16 1;
#X connect 14 0 13 0;
#X connect 15 0 19 1;
#X connect 16 0 15 0;
#X connect 17 0 19 3;
#X connect 19 0 11 0;
#X connect 20 0 21 0;
#X connect 20 1 21 0;
#X connect 21 0 5 0;
