#N canvas 10 23 937 855 10;
#X obj 200 530 outlet~;
#X obj 505 530 outlet~;
#X obj 503 59 inlet;
#X text 442 38 load sample source (by filepath);
#X obj 200 39 inlet;
#X obj 200 60 unpack f f;
#X text 62 18 trigger sample at <f1> speed multiplier and <f2> amplitude
;
#X obj 200 480 *~;
#X obj 505 480 *~;
#X text 372 58 note off;
#X obj 337 404 line~;
#X msg 380 362 0 50;
#X obj 257 200 / 127;
#X obj 257 242 * 0.8;
#X obj 257 263 + 0.2;
#X obj 257 221 pow 2;
#X msg 257 284 \$1 10;
#X obj 200 329 usample/headless/sampleplaybackvarispeed, f 51;
#X obj 380 79 inlet b;
#X obj 301 59 inlet~;
#X text 293 38 speed multiplier +/-;
#X connect 2 0 17 3;
#X connect 4 0 5 0;
#X connect 5 0 17 0;
#X connect 5 1 12 0;
#X connect 7 0 0 0;
#X connect 8 0 1 0;
#X connect 10 0 7 1;
#X connect 10 0 8 1;
#X connect 11 0 10 0;
#X connect 12 0 15 0;
#X connect 13 0 14 0;
#X connect 14 0 16 0;
#X connect 15 0 13 0;
#X connect 16 0 10 0;
#X connect 17 0 7 0;
#X connect 17 1 8 0;
#X connect 18 0 11 0;
#X connect 19 0 17 1;
