#N canvas 0 23 1440 855 10;
#X obj 248 147 poly 12 1, f 33;
#X obj 670 703 outlet~;
#X obj 248 125 unpack f f, f 33;
#N canvas 0 23 450 300 pitchBend 0;
#X obj 165 89 / 8192;
#X obj 222 89 / 8192;
#X obj 222 111 / 2;
#X obj 222 133 + 0.5;
#X obj 165 67 moses 8192;
#X obj 165 111 / 3;
#X obj 165 133 + 0.6666;
#X msg 165 155 \$1 20;
#X obj 165 177 line~;
#X obj 165 199 outlet~;
#X obj 165 45 inlet;
#X connect 0 0 5 0;
#X connect 1 0 2 0;
#X connect 2 0 3 0;
#X connect 3 0 7 0;
#X connect 4 0 0 0;
#X connect 4 1 1 0;
#X connect 5 0 6 0;
#X connect 6 0 7 0;
#X connect 7 0 8 0;
#X connect 8 0 9 0;
#X connect 10 0 4 0;
#X restore 1286 54 pd pitchBend;
#X obj 287 694 vsl 20 70 0 1 0 0 \$0-volume_1_s \$0-volume_1_r empty
0 -9 0 10 -262144 -1 -1 0 1;
#X obj 307 694 vsl 20 70 0 1 0 0 \$0-volume_2_s \$0-volume_2_r empty
0 -9 0 10 -262144 -1 -1 0 1;
#X obj 327 694 vsl 20 70 0 1 0 0 \$0-volume_3_s \$0-volume_3_r empty
0 -9 0 10 -262144 -1 -1 6900 1;
#N canvas 20 44 1389 456 initialize 0;
#X obj 25 42 loadbang;
#X obj 125 99 s \$0-volume_2_r;
#X obj 265 119 s \$0-modEnv_1_attack_r;
#X obj 305 99 s \$0-modEnv_1_decay_r;
#X obj 345 79 s \$0-modEnv_1_max_r;
#X msg 475 58 10;
#X msg 515 58 200;
#X obj 475 119 s \$0-modEnv_2_attack_r;
#X obj 515 99 s \$0-modEnv_2_decay_r;
#X obj 555 79 s \$0-modEnv_2_max_r;
#X msg 695 58 10;
#X msg 735 58 200;
#X obj 775 79 s \$0-modEnv_3_max_r;
#X obj 735 99 s \$0-modEnv_3_decay_r;
#X obj 695 119 s \$0-modEnv_3_attack_r;
#X obj 85 119 s \$0-volume_1_r;
#X obj 165 79 s \$0-volume_3_r;
#X msg 915 58 10;
#X obj 915 119 s \$0-ampEnv_attack_r;
#X obj 955 99 s \$0-ampEnv_decay_r;
#X obj 1005 79 s \$0-ampEnv_release_r;
#X msg 1005 58 50;
#X msg 165 58 1;
#X obj 25 142 loadbang;
#X obj 165 179 s \$0-modIndex_3_base_r;
#X obj 125 199 s \$0-modIndex_2_base_r;
#X obj 85 219 s \$0-modIndex_1_base_r;
#X msg 165 158 0;
#X msg 125 158 0;
#X msg 85 158 0;
#X msg 125 58 0;
#X msg 85 58 0;
#X msg 265 58 0;
#X msg 305 58 0;
#X msg 345 58 0;
#X msg 485 158 8192;
#X msg 525 158 0;
#X obj 525 179 s \$0-modAmount_r;
#X obj 485 199 s \$0-pitch_bend_r;
#X obj 315 199 s \$0-mod_mult_2_r;
#X obj 355 179 s \$0-mod_mult_3_r;
#X msg 555 58 0.25;
#X msg 775 58 0.25;
#X msg 315 158 0.999;
#X msg 355 158 1.001;
#X msg 955 58 50000;
#X connect 0 0 31 0;
#X connect 0 0 30 0;
#X connect 0 0 22 0;
#X connect 0 0 32 0;
#X connect 0 0 33 0;
#X connect 0 0 34 0;
#X connect 0 0 5 0;
#X connect 0 0 6 0;
#X connect 0 0 41 0;
#X connect 0 0 10 0;
#X connect 0 0 11 0;
#X connect 0 0 42 0;
#X connect 0 0 17 0;
#X connect 0 0 45 0;
#X connect 0 0 21 0;
#X connect 5 0 7 0;
#X connect 6 0 8 0;
#X connect 10 0 14 0;
#X connect 11 0 13 0;
#X connect 17 0 18 0;
#X connect 21 0 20 0;
#X connect 22 0 16 0;
#X connect 23 0 29 0;
#X connect 23 0 28 0;
#X connect 23 0 27 0;
#X connect 23 0 43 0;
#X connect 23 0 44 0;
#X connect 23 0 35 0;
#X connect 23 0 36 0;
#X connect 27 0 24 0;
#X connect 28 0 25 0;
#X connect 29 0 26 0;
#X connect 30 0 1 0;
#X connect 31 0 15 0;
#X connect 32 0 2 0;
#X connect 33 0 3 0;
#X connect 34 0 4 0;
#X connect 35 0 38 0;
#X connect 36 0 37 0;
#X connect 41 0 9 0;
#X connect 42 0 12 0;
#X connect 43 0 39 0;
#X connect 44 0 40 0;
#X connect 45 0 19 0;
#X restore 470 130 pd initialize;
#X obj 3 659 *~;
#X obj 18 598 pow 2;
#X obj 670 659 *~;
#X obj 685 598 pow 2;
#X obj 1338 659 *~;
#X obj 1231 601 pow 2;
#X obj 685 577 r \$0-volume_2_s;
#X obj 248 191 s \$0-note_on;
#X obj 443 190 s \$0-note_off;
#X obj 3 150 r \$0-note_on;
#X obj 3 171 unpack f f, f 12;
#X obj 3 274 pack f f, f 10;
#X obj 72 191 mtof;
#X obj 54 299 pack f f;
#X obj 99 276 *;
#X msg 105 371 \$1 50;
#X obj 105 392 line~;
#X msg 413 371 \$1 50;
#X obj 413 392 line~;
#X obj 3 212 t f f f, f 9;
#X obj 72 212 t f f f;
#X obj 362 301 pack f f;
#X obj 407 277 *;
#X msg 721 371 \$1 50;
#X obj 721 392 line~;
#X obj 669 172 inlet~;
#X text 653 151 aux audio in;
#X obj 978 275 r \$0-note_on;
#X msg 978 296 \$1 \$3;
#X obj 978 317 t l l, f 9;
#X msg 978 338 \$1 bang;
#X msg 1029 358 \$1 \$2;
#X obj 1081 275 r \$0-ampEnv_attack_s;
#X obj 1132 295 r \$0-ampEnv_decay_s;
#X obj 1234 356 r \$0-ampEnv_release_s;
#X obj 1183 315 r \$0-note_off;
#X msg 1183 336 \$1 bang;
#X obj 422 254 r \$0-mod_mult_2_s;
#X msg 824 476 all \$1;
#X msg 875 496 all \$1;
#X msg 927 516 all \$1;
#X msg 516 474 all \$1;
#X msg 567 494 all \$1;
#X msg 619 514 all \$1;
#X obj 516 453 r \$0-modEnv_2_attack_s;
#X obj 567 473 r \$0-modEnv_2_decay_s;
#X obj 619 493 r \$0-modEnv_2_max_s;
#X msg 208 474 all \$1;
#X msg 259 494 all \$1;
#X msg 311 514 all \$1;
#X obj 157 398 r \$0-note_on;
#X msg 157 419 \$1 bang;
#X obj 465 398 r \$0-note_on;
#X msg 465 419 \$1 bang;
#X obj 773 398 r \$0-note_on;
#X msg 773 419 \$1 bang;
#X obj 413 350 r \$0-modIndex_2_base_s;
#X msg 1081 296 all \$1;
#X msg 1132 316 all \$1;
#X msg 1234 377 all \$1;
#X msg 18 619 \$1 20;
#X obj 18 640 line~;
#X msg 685 619 \$1 20;
#X obj 685 640 line~;
#X msg 1231 622 \$1 20;
#X obj 1231 643 line~;
#X floatatom 112 705 5 0 0 0 - #0-modEnv_1_attack_r #0-modEnv_1_attack_s
, f 5;
#X floatatom 112 720 5 0 0 0 - #0-modEnv_1_decay_r #0-modEnv_1_decay_s
, f 5;
#X floatatom 112 690 5 0 0 0 - #0-modEnv_1_max_r #0-modEnv_1_max_s
, f 5;
#X floatatom 148 705 5 0 0 0 - #0-modEnv_2_attack_r #0-modEnv_2_attack_s
, f 5;
#X floatatom 148 720 5 0 0 0 - #0-modEnv_2_decay_r #0-modEnv_2_decay_s
, f 5;
#X floatatom 148 690 5 0 0 0 - #0-modEnv_2_max_r #0-modEnv_2_max_s
, f 5;
#X floatatom 184 705 5 0 0 0 - #0-modEnv_3_attack_r #0-modEnv_3_attack_s
, f 5;
#X floatatom 184 720 5 0 0 0 - #0-modEnv_3_decay_r #0-modEnv_3_decay_s
, f 5;
#X floatatom 184 690 5 0 0 0 - #0-modEnv_3_max_r #0-modEnv_3_max_s
, f 5;
#X text 147 661 mod 2;
#X text 218 705 attack;
#X text 218 720 decay;
#X floatatom 132 767 5 0 0 0 - #0-ampEnv_attack_r #0-ampEnv_attack_s
, f 5;
#X floatatom 132 782 6 0 0 0 - #0-ampEnv_decay_r #0-ampEnv_decay_s
, f 6;
#X floatatom 132 797 5 0 0 0 - #0-ampEnv_release_r #0-ampEnv_release_s
, f 5;
#X text 166 767 attack;
#X text 172 782 decay;
#X text 166 797 release;
#X text 131 753 amp env;
#X floatatom 112 675 5 0 0 0 - #0-modIndex_1_base_r #0-modIndex_1_base_s
, f 5;
#X floatatom 148 675 5 0 0 0 - #0-modIndex_2_base_r #0-modIndex_2_base_s
, f 5;
#X floatatom 184 675 5 0 0 0 - #0-modIndex_3_base_r #0-modIndex_3_base_s
, f 5;
#X text 218 675 base;
#X text 218 690 env;
#X floatatom 184 735 5 0 0 0 - #0-mod_mult_3_r #0-mod_mult_3_s, f
5;
#X floatatom 148 735 5 0 0 0 - #0-mod_mult_2_r #0-mod_mult_2_s, f
5;
#X text 218 736 freq mult;
#X text 286 770 stage mix;
#X text 293 724 1;
#X text 313 724 2;
#X text 333 724 3;
#X obj 18 577 r \$0-volume_3_s;
#X obj 1231 580 r \$0-volume_1_s;
#X text 183 661 mod 3;
#X text 111 661 mod 1;
#X text 225 11 keyrig input;
#X obj 248 52 route 0 1 2 3 4, f 32;
#X obj 285 104 s \$0-pitch_bend_r;
#X obj 1286 33 r \$0-pitch_bend_s;
#X obj 366 681 vsl 10 100 0 16384 0 0 \$0-pitch_bend_s \$0-pitch_bend_r
empty 0 -9 0 10 -262144 -260097 -1 4950 1;
#X obj 105 350 r \$0-modIndex_3_base_s;
#X obj 721 350 r \$0-modIndex_1_base_s;
#X obj 824 455 r \$0-modEnv_1_attack_s;
#X obj 875 475 r \$0-modEnv_1_decay_s;
#X obj 927 495 r \$0-modEnv_1_max_s;
#X obj 208 453 r \$0-modEnv_3_attack_s;
#X obj 259 473 r \$0-modEnv_3_decay_s;
#X obj 311 493 r \$0-modEnv_3_max_s;
#X obj 114 254 r \$0-mod_mult_3_s;
#X obj 323 84 s \$0-modAmount_r;
#X obj 376 681 vsl 10 100 0 127 0 0 \$0-modAmount_s \$0-modAmount_r
empty 0 -9 0 10 -262144 -260097 -1 0 1;
#X obj 1338 83 r \$0-modAmount_s;
#X obj 1338 104 / 64;
#X msg 1338 125 \$1 20;
#X obj 1338 146 line~;
#X obj 248 31 inlet list;
#X obj 248 169 uutil/headless/noteonoffseparator;
#X obj 3 538 clone headless/cascadefmvoice 12, f 223;
#X connect 0 0 130 0;
#X connect 0 1 130 1;
#X connect 0 2 130 2;
#X connect 2 0 0 0;
#X connect 2 1 0 1;
#X connect 3 0 131 25;
#X connect 8 0 1 0;
#X connect 9 0 68 0;
#X connect 10 0 1 0;
#X connect 11 0 70 0;
#X connect 12 0 1 0;
#X connect 13 0 72 0;
#X connect 14 0 11 0;
#X connect 17 0 18 0;
#X connect 18 0 27 0;
#X connect 18 1 20 0;
#X connect 19 0 131 0;
#X connect 20 0 28 0;
#X connect 21 0 131 1;
#X connect 22 0 21 1;
#X connect 23 0 24 0;
#X connect 24 0 131 2;
#X connect 25 0 26 0;
#X connect 26 0 131 8;
#X connect 27 0 19 0;
#X connect 27 1 21 0;
#X connect 27 2 29 0;
#X connect 28 0 19 1;
#X connect 28 1 22 0;
#X connect 28 2 30 0;
#X connect 29 0 131 7;
#X connect 30 0 29 1;
#X connect 31 0 32 0;
#X connect 32 0 131 14;
#X connect 33 0 131 13;
#X connect 35 0 36 0;
#X connect 36 0 37 0;
#X connect 37 0 38 0;
#X connect 37 1 39 0;
#X connect 38 0 131 19;
#X connect 39 0 131 20;
#X connect 40 0 65 0;
#X connect 41 0 66 0;
#X connect 42 0 67 0;
#X connect 43 0 44 0;
#X connect 44 0 131 23;
#X connect 45 0 30 1;
#X connect 46 0 131 16;
#X connect 47 0 131 17;
#X connect 48 0 131 18;
#X connect 49 0 131 10;
#X connect 50 0 131 11;
#X connect 51 0 131 12;
#X connect 52 0 49 0;
#X connect 53 0 50 0;
#X connect 54 0 51 0;
#X connect 55 0 131 4;
#X connect 56 0 131 5;
#X connect 57 0 131 6;
#X connect 58 0 59 0;
#X connect 59 0 131 3;
#X connect 60 0 61 0;
#X connect 61 0 131 9;
#X connect 62 0 63 0;
#X connect 63 0 131 15;
#X connect 64 0 25 0;
#X connect 65 0 131 21;
#X connect 66 0 131 22;
#X connect 67 0 131 24;
#X connect 68 0 69 0;
#X connect 69 0 8 1;
#X connect 70 0 71 0;
#X connect 71 0 10 1;
#X connect 72 0 73 0;
#X connect 73 0 12 1;
#X connect 105 0 9 0;
#X connect 106 0 13 0;
#X connect 110 0 2 0;
#X connect 110 1 111 0;
#X connect 110 2 123 0;
#X connect 112 0 3 0;
#X connect 114 0 23 0;
#X connect 115 0 31 0;
#X connect 116 0 46 0;
#X connect 117 0 47 0;
#X connect 118 0 48 0;
#X connect 119 0 55 0;
#X connect 120 0 56 0;
#X connect 121 0 57 0;
#X connect 122 0 22 1;
#X connect 125 0 126 0;
#X connect 126 0 127 0;
#X connect 127 0 128 0;
#X connect 128 0 131 26;
#X connect 129 0 110 0;
#X connect 130 0 15 0;
#X connect 130 1 16 0;
#X connect 131 0 8 0;
#X connect 131 1 10 0;
#X connect 131 2 12 0;
#X coords 0 -1 1 1 320 170 2 100 650;
