#N canvas 0 23 1440 855 10;
#N canvas 0 23 720 757 snare 0;
#X obj 101 163 line~;
#X obj 62 247 *~;
#X obj 77 226 noise~;
#X obj 101 184 pow~ 4;
#X obj 101 121 f;
#X msg 101 142 1 \, 0 \$1;
#X obj 62 37 inlet;
#X obj 242 57 inlet;
#X obj 485 77 inlet;
#X obj 200 622 loadbang;
#X obj 200 478 loadbang;
#X obj 62 729 outlet~;
#X obj 289 481 r \$0-snare_highpass_s;
#X obj 289 641 r \$0-snare_lowpass_s;
#X obj 62 78 t f b, f 7;
#X obj 62 99 pow 2;
#X obj 62 205 *~, f 7;
#X obj 242 140 pow 2;
#X obj 485 139 pow 2;
#X obj 116 99 r \$0-snare_length_s;
#X obj 281 204 line~;
#X obj 242 288 *~;
#X obj 257 267 noise~;
#X obj 281 225 pow~ 4;
#X obj 281 162 f;
#X msg 281 183 1 \, 0 \$1;
#X obj 242 246 *~, f 7;
#X obj 296 119 r \$0-snare_length_s;
#X obj 242 119 * 0.8;
#X obj 341 278 *~;
#X obj 341 174 line~;
#X obj 242 98 t f b b, f 15;
#X msg 200 500 3;
#X obj 524 249 line~;
#X obj 485 377 *~;
#X obj 524 270 pow~ 4;
#X obj 524 207 f;
#X msg 524 228 1 \, 0 \$1;
#X obj 485 291 *~, f 7;
#X obj 539 185 r \$0-snare_length_s;
#X obj 242 384 *~, f 17;
#X obj 510 356 bp~, f 12;
#X msg 544 335 2000;
#X obj 296 140 * 0.6;
#X obj 360 368 *~, f 6;
#X obj 393 347 hip~;
#X obj 393 286 noise~;
#X obj 414 306 loadbang;
#X obj 341 195 expr~ log((9*$v1)+1);
#X msg 341 152 1 \, 0 20;
#X msg 414 327 10000;
#X obj 360 329 /~ 4;
#X obj 612 319 loadbang;
#X obj 485 118 t f b, f 7;
#X text 13 17 trigger snare 1 (velocity 0-127);
#X text 159 37 trigger side stick (velocity 0-127);
#X text 414 57 trigger snare 2 (velocity 0-127);
#X obj 485 98 expr pow(($f1/127) \, 2);
#X obj 242 78 expr pow(($f1/127) \, 2);
#X obj 62 58 expr pow(($f1/127) \, 2);
#X msg 200 644 3;
#X obj 200 542 loadbang;
#X obj 289 502 t f f;
#X msg 200 564 3;
#X obj 316 569 * 1.1;
#X obj 62 449 *~ 4;
#X obj 112 522 ufilter/headless/filterchainhp;
#X obj 112 585 ufilter/headless/filterchainlp;
#X obj 112 665 ufilter/headless/filterchainlp;
#X obj 356 226 noise~;
#X obj 500 314 noise~;
#X obj 356 259 lop~;
#X obj 400 222 loadbang;
#X msg 400 243 200;
#X msg 579 335 2;
#X connect 0 0 3 0;
#X connect 1 0 65 0;
#X connect 2 0 1 1;
#X connect 3 0 16 1;
#X connect 4 0 5 0;
#X connect 5 0 0 0;
#X connect 6 0 59 0;
#X connect 7 0 58 0;
#X connect 8 0 57 0;
#X connect 9 0 60 0;
#X connect 10 0 32 0;
#X connect 12 0 62 0;
#X connect 13 0 68 2;
#X connect 14 0 15 0;
#X connect 14 1 4 0;
#X connect 15 0 16 0;
#X connect 16 0 1 0;
#X connect 17 0 26 0;
#X connect 17 0 40 0;
#X connect 18 0 38 0;
#X connect 19 0 4 1;
#X connect 20 0 23 0;
#X connect 21 0 65 0;
#X connect 22 0 21 1;
#X connect 23 0 26 1;
#X connect 24 0 25 0;
#X connect 25 0 20 0;
#X connect 26 0 21 0;
#X connect 27 0 43 0;
#X connect 28 0 17 0;
#X connect 29 0 40 1;
#X connect 30 0 48 0;
#X connect 31 0 28 0;
#X connect 31 1 24 0;
#X connect 31 2 49 0;
#X connect 32 0 66 1;
#X connect 33 0 35 0;
#X connect 34 0 65 0;
#X connect 35 0 38 1;
#X connect 36 0 37 0;
#X connect 37 0 33 0;
#X connect 38 0 34 0;
#X connect 39 0 36 1;
#X connect 40 0 65 0;
#X connect 41 0 34 1;
#X connect 42 0 41 1;
#X connect 43 0 24 1;
#X connect 44 0 40 1;
#X connect 45 0 44 1;
#X connect 46 0 45 0;
#X connect 47 0 50 0;
#X connect 48 0 29 0;
#X connect 48 0 51 0;
#X connect 49 0 30 0;
#X connect 50 0 45 1;
#X connect 51 0 44 0;
#X connect 52 0 74 0;
#X connect 52 0 42 0;
#X connect 53 0 18 0;
#X connect 53 1 36 0;
#X connect 57 0 53 0;
#X connect 58 0 31 0;
#X connect 59 0 14 0;
#X connect 60 0 68 1;
#X connect 61 0 63 0;
#X connect 62 0 66 2;
#X connect 62 1 64 0;
#X connect 63 0 67 1;
#X connect 64 0 67 2;
#X connect 65 0 66 0;
#X connect 65 0 68 0;
#X connect 66 0 67 0;
#X connect 67 0 11 0;
#X connect 68 0 11 0;
#X connect 69 0 71 0;
#X connect 70 0 41 0;
#X connect 70 0 34 1;
#X connect 71 0 29 1;
#X connect 72 0 73 0;
#X connect 73 0 71 1;
#X connect 74 0 41 2;
#X restore 88 459 pd snare;
#X floatatom 81 40 6 20 20000 0 - #0-snare_lowpass_r #0-snare_lowpass_s
, f 6;
#X floatatom 81 60 6 20 20000 0 - #0-snare_highpass_r #0-snare_highpass_s
, f 6;
#X floatatom 81 80 6 0 0 0 - #0-snare_length_r #0-snare_length_s,
f 6;
#X text 23 80 length;
#X text 54 23 SNARE;
#X obj 37 297 inlet;
#X obj 37 318 route 0 1 2 3 4, f 42;
#X text 34 277 midi in from keyrig_input;
#N canvas 145 238 718 476 kick 0;
#X obj 32 46 inlet;
#X obj 32 68 expr pow(($f1/127) \, 2);
#X obj 32 292 *~, f 5;
#X obj 59 130 f;
#X obj 74 109 r \$0-kick_length_s;
#X obj 59 266 osc~;
#X obj 32 428 outlet~;
#X text 25 25 kick type 1;
#X text 305 25 kick type 2;
#X obj 292 46 inlet;
#X obj 292 68 expr pow(($f1/127) \, 2);
#X obj 292 348 *~;
#X obj 415 121 f;
#X obj 430 100 r \$0-kick_length_s;
#X obj 316 327 osc~;
#X obj 316 306 +~, f 17;
#X obj 316 200 *~;
#X obj 461 189 r \$0-kick_pitch_s;
#X obj 292 89 t f b, f 21;
#X obj 415 184 pow~ 2;
#X obj 415 205 *~;
#X obj 74 224 r \$0-kick_pitch_s;
#X obj 59 245 *~;
#X obj 32 89 t f b;
#X obj 59 194 pow~ 2;
#X obj 32 313 *~;
#X obj 292 369 *~;
#X obj 59 173 vline~;
#X obj 415 163 vline~;
#X msg 415 142 1 5 \, 0 \$1 5;
#X obj 316 221 *~ 300;
#X msg 59 152 1 5 \, 0 \$1 5;
#X obj 316 118 noise~;
#X obj 316 177 lop~;
#X obj 349 140 loadbang;
#X msg 349 161 200;
#X connect 0 0 1 0;
#X connect 1 0 23 0;
#X connect 2 0 25 0;
#X connect 3 0 31 0;
#X connect 4 0 3 1;
#X connect 5 0 2 1;
#X connect 9 0 10 0;
#X connect 10 0 18 0;
#X connect 11 0 26 0;
#X connect 12 0 29 0;
#X connect 13 0 12 1;
#X connect 14 0 11 1;
#X connect 15 0 14 0;
#X connect 16 0 30 0;
#X connect 17 0 20 1;
#X connect 18 0 11 0;
#X connect 18 1 12 0;
#X connect 19 0 20 0;
#X connect 19 0 16 1;
#X connect 19 0 26 1;
#X connect 20 0 15 1;
#X connect 21 0 22 1;
#X connect 22 0 5 0;
#X connect 23 0 2 0;
#X connect 23 1 3 0;
#X connect 24 0 22 0;
#X connect 24 0 25 1;
#X connect 25 0 6 0;
#X connect 26 0 6 0;
#X connect 27 0 24 0;
#X connect 28 0 19 0;
#X connect 29 0 28 0;
#X connect 30 0 15 0;
#X connect 31 0 27 0;
#X connect 32 0 33 0;
#X connect 33 0 16 0;
#X connect 34 0 35 0;
#X connect 35 0 33 1;
#X restore 37 459 pd kick;
#X floatatom 183 40 6 20 20000 0 - #0-kick_pitch_r #0-kick_pitch_s
, f 6;
#X floatatom 183 60 6 0 0 0 - #0-kick_length_r #0-kick_length_s, f
6;
#X text 135 60 length;
#X text 135 40 pitch;
#X obj 37 339 route 0 1 2 3 4 5 6 7 8 9 10 11 12 13 14 15 16 17 18
19 20 21 22 23 24 25 26 27 28 29, f 120;
#X floatatom 300 60 6 20 20000 0 - #0-hat_width_r #0-hat_width_s,
f 6;
#X floatatom 300 40 6 0 0 0 - #0-hat_highpass_r #0-hat_highpass_s,
f 6;
#X text 161 23 KICK;
#X text 265 23 HI HAT;
#X text 242 40 highpass;
#X text 23 40 lowpass;
#X text 23 60 highpass;
#N canvas 720 23 720 757 hat 0;
#X obj 269 377 line~;
#X obj 62 483 *~;
#X obj 77 462 noise~;
#X obj 62 37 inlet;
#X obj 242 57 inlet;
#X obj 425 77 inlet;
#X obj 150 516 loadbang;
#X obj 62 709 outlet~;
#X msg 150 538 3;
#X obj 425 98 expr pow(($f1/127) \, 2);
#X obj 242 78 expr pow(($f1/127) \, 2);
#X obj 62 58 expr pow(($f1/127) \, 2);
#X obj 150 608 loadbang;
#X obj 239 542 t f f;
#X text 189 39 pedal hat (velocity 0-127);
#X text 13 17 closed hat (velocity 0-127);
#X text 374 57 open hat (velocity 0-127);
#X obj 239 521 r \$0-hat_highpass_s;
#X obj 266 635 +, f 7;
#X obj 278 594 r \$0-hat_width_s;
#X obj 278 615 t b f;
#X msg 150 630 4;
#X msg 269 159 1 \, 0 500;
#X obj 62 79 t f b;
#X obj 242 99 t f b;
#X obj 425 119 t f b;
#X obj 62 415 *~;
#X obj 276 133 del 30;
#X obj 269 399 pow~ 12;
#X msg 89 99 1 \, 0 120;
#X msg 452 139 0.9 \, 0 4000;
#X obj 62 568 ufilter/headless/filterchainhp;
#X obj 62 651 ufilter/headless/filterchainlp;
#X connect 0 0 28 0;
#X connect 1 0 31 0;
#X connect 2 0 1 1;
#X connect 3 0 11 0;
#X connect 4 0 10 0;
#X connect 5 0 9 0;
#X connect 6 0 8 0;
#X connect 8 0 31 1;
#X connect 9 0 25 0;
#X connect 10 0 24 0;
#X connect 11 0 23 0;
#X connect 12 0 21 0;
#X connect 13 0 31 2;
#X connect 13 1 18 0;
#X connect 17 0 13 0;
#X connect 18 0 32 2;
#X connect 19 0 20 0;
#X connect 20 0 18 0;
#X connect 20 1 18 1;
#X connect 21 0 32 1;
#X connect 22 0 0 0;
#X connect 23 0 26 0;
#X connect 23 1 29 0;
#X connect 24 0 26 0;
#X connect 24 1 22 0;
#X connect 24 1 27 0;
#X connect 25 0 26 0;
#X connect 25 1 30 0;
#X connect 26 0 1 0;
#X connect 27 0 22 0;
#X connect 28 0 26 1;
#X connect 29 0 0 0;
#X connect 30 0 0 0;
#X connect 31 0 32 0;
#X connect 32 0 7 0;
#X restore 303 459 pd hat;
#N canvas 1033 23 407 536 handclap 0;
#X obj 101 120 line~;
#X obj 62 204 *~;
#X obj 77 183 noise~;
#X obj 101 141 pow~ 4;
#X obj 62 37 inlet;
#X obj 62 409 outlet~;
#X obj 62 78 t f b, f 7;
#X obj 62 99 pow 2;
#X obj 62 162 *~, f 7;
#X obj 62 58 expr pow(($f1/127) \, 2);
#X text 23 17 clap (velocity 0-127);
#X obj 62 296 bp~, f 11;
#X obj 125 254 loadbang;
#X obj 93 233 r \$0-handclap_lowpass_s;
#X msg 101 99 1 \, 0 150;
#X msg 125 276 1;
#X connect 0 0 3 0;
#X connect 1 0 11 0;
#X connect 2 0 1 1;
#X connect 3 0 8 1;
#X connect 4 0 9 0;
#X connect 6 0 7 0;
#X connect 6 1 14 0;
#X connect 7 0 8 0;
#X connect 8 0 1 0;
#X connect 9 0 6 0;
#X connect 11 0 5 0;
#X connect 12 0 15 0;
#X connect 13 0 11 1;
#X connect 14 0 0 0;
#X connect 15 0 11 2;
#X restore 143 459 pd handclap;
#X floatatom 412 40 6 20 20000 0 - #0-tom_low_pitch_r #0-tom_low_pitch_s
, f 6;
#X floatatom 412 60 6 0 0 0 - #0-tom_low_mid_pitch_r #0-tom_low_mid_pitch_s
, f 6;
#X floatatom 511 40 6 20 20000 0 - #0-tom_high_mid_pitch_r #0-tom_high_mid_pitch_s
, f 6;
#X floatatom 511 60 6 0 0 0 - #0-tom_high_pitch_r #0-tom_high_pitch_s
, f 6;
#X text 357 60 low mid;
#X text 454 40 high mid;
#X text 454 60 high;
#X obj 124 20 cnv 2 2 80 empty empty empty 20 12 0 14 -1 -66577 0;
#X obj 233 20 cnv 2 2 60 empty empty empty 20 12 0 14 -1 -66577 0;
#X obj 349 20 cnv 2 2 60 empty empty empty 20 12 0 14 -1 -66577 0;
#X obj 125 79 cnv 2 655 2 empty empty empty 20 12 0 14 -1 -66577 0
;
#N canvas 18 48 720 757 ride 0;
#X obj 62 37 inlet;
#X obj 471 81 inlet;
#X obj 62 709 outlet~;
#X obj 471 102 expr pow(($f1/127) \, 2);
#X obj 62 58 expr pow(($f1/127) \, 2);
#X text 428 61 ride type 2 (velocity 0-127);
#X text 13 17 ride type 1 (velocity 0-127);
#X obj 262 57 inlet;
#X obj 262 78 expr pow(($f1/127) \, 2);
#X text 213 37 ride type 1 bell (velocity 0-127);
#X obj 89 133 line~;
#X obj 62 265 *~;
#X obj 77 244 noise~;
#X obj 89 295 loadbang;
#X msg 89 317 4;
#X obj 289 153 line~;
#X obj 262 291 *~;
#X obj 277 233 noise~;
#X obj 289 315 loadbang;
#X msg 289 337 4;
#X obj 498 177 line~;
#X obj 471 309 *~;
#X obj 486 288 noise~;
#X obj 529 312 loadbang;
#X obj 327 233 loadbang;
#X obj 327 275 osc~;
#X obj 127 317 r \$0-ride_highpass_s;
#X obj 327 337 r \$0-ride_highpass_s;
#X obj 546 416 loadbang;
#X obj 62 79 t f b;
#X obj 62 170 *~;
#X obj 262 99 t f b;
#X obj 262 190 *~;
#X obj 471 123 t f b;
#X obj 471 214 *~;
#X msg 498 156 1 \, 0 10000;
#X msg 289 132 1 \, 0 5000;
#X msg 327 254 6000;
#X obj 367 275 osc~;
#X msg 367 254 7000;
#X msg 89 112 1 \, 0 10000;
#X obj 89 154 pow~ 14;
#X obj 498 198 pow~ 14;
#X obj 289 174 pow~ 16;
#X obj 567 334 r \$0-ride_highpass_s;
#X msg 529 334 4;
#X obj 471 458 bp~, f 13;
#X obj 508 395 r \$0-ride_highpass_s;
#X msg 546 438 10;
#X obj 62 347 ufilter/headless/filterchainhp;
#X obj 262 367 ufilter/headless/filterchainhp;
#X obj 502 364 ufilter/headless/filterchainhp;
#X connect 0 0 4 0;
#X connect 1 0 3 0;
#X connect 3 0 33 0;
#X connect 4 0 29 0;
#X connect 7 0 8 0;
#X connect 8 0 31 0;
#X connect 10 0 41 0;
#X connect 11 0 49 0;
#X connect 12 0 11 1;
#X connect 13 0 14 0;
#X connect 14 0 49 1;
#X connect 15 0 43 0;
#X connect 16 0 50 0;
#X connect 17 0 16 1;
#X connect 18 0 19 0;
#X connect 19 0 50 1;
#X connect 20 0 42 0;
#X connect 21 0 46 0;
#X connect 21 0 51 0;
#X connect 22 0 21 1;
#X connect 23 0 45 0;
#X connect 24 0 37 0;
#X connect 24 0 39 0;
#X connect 25 0 16 1;
#X connect 26 0 49 2;
#X connect 27 0 50 2;
#X connect 28 0 48 0;
#X connect 29 0 30 0;
#X connect 29 1 40 0;
#X connect 30 0 11 0;
#X connect 31 0 32 0;
#X connect 31 1 36 0;
#X connect 32 0 16 0;
#X connect 33 0 34 0;
#X connect 33 1 35 0;
#X connect 34 0 21 0;
#X connect 35 0 20 0;
#X connect 36 0 15 0;
#X connect 37 0 25 0;
#X connect 38 0 16 1;
#X connect 39 0 38 0;
#X connect 40 0 10 0;
#X connect 41 0 30 1;
#X connect 42 0 34 1;
#X connect 43 0 32 1;
#X connect 44 0 51 2;
#X connect 45 0 51 1;
#X connect 46 0 2 0;
#X connect 47 0 46 1;
#X connect 48 0 46 2;
#X connect 49 0 2 0;
#X connect 50 0 2 0;
#X restore 570 459 pd ride;
#N canvas 0 23 720 757 crash 0;
#X obj 62 37 inlet;
#X obj 382 57 inlet;
#X obj 62 709 outlet~;
#X obj 382 78 expr pow(($f1/127) \, 2);
#X obj 62 58 expr pow(($f1/127) \, 2);
#X text 13 17 crash type 1 (velocity 0-127);
#X text 339 37 crash type 2 (velocity 0-127);
#X obj 89 133 line~;
#X obj 62 215 *~;
#X obj 77 194 noise~;
#X obj 150 235 loadbang;
#X obj 239 257 r \$0-crash_lowpass_s;
#X msg 150 257 2;
#X obj 409 143 line~;
#X obj 382 232 *~;
#X obj 397 207 noise~;
#X obj 470 330 loadbang;
#X obj 559 352 r \$0-crash_lowpass_s;
#X obj 62 79 t f b;
#X msg 89 112 1 \, 0 10000;
#X obj 62 170 *~;
#X obj 89 154 pow~ 20;
#X obj 382 99 t f b;
#X obj 382 180 *~;
#X msg 409 122 1 \, 0 10000;
#X obj 419 230 loadbang;
#X obj 382 293 bp~, f 13;
#X msg 419 272 5000;
#X msg 470 352 1;
#X msg 457 272 10;
#X obj 409 164 pow~ 10;
#X obj 62 298 *~ 0.8;
#X obj 382 394 *~ 0.8;
#X obj 62 277 ufilter/headless/filterchainlp;
#X obj 382 373 ufilter/headless/filterchainlp;
#X connect 0 0 4 0;
#X connect 1 0 3 0;
#X connect 3 0 22 0;
#X connect 4 0 18 0;
#X connect 7 0 21 0;
#X connect 8 0 33 0;
#X connect 9 0 8 1;
#X connect 10 0 12 0;
#X connect 11 0 33 2;
#X connect 12 0 33 1;
#X connect 13 0 30 0;
#X connect 14 0 26 0;
#X connect 15 0 14 1;
#X connect 16 0 28 0;
#X connect 17 0 34 2;
#X connect 18 0 20 0;
#X connect 18 1 19 0;
#X connect 19 0 7 0;
#X connect 20 0 8 0;
#X connect 21 0 20 1;
#X connect 22 0 23 0;
#X connect 22 1 24 0;
#X connect 23 0 14 0;
#X connect 24 0 13 0;
#X connect 25 0 29 0;
#X connect 25 0 27 0;
#X connect 26 0 34 0;
#X connect 27 0 26 1;
#X connect 28 0 34 1;
#X connect 29 0 26 2;
#X connect 30 0 23 1;
#X connect 31 0 2 0;
#X connect 32 0 2 0;
#X connect 33 0 31 0;
#X connect 34 0 32 0;
#X restore 514 459 pd crash;
#N canvas 0 23 720 757 bongos 0;
#X obj 62 37 inlet;
#X obj 62 709 outlet~;
#X obj 62 58 expr pow(($f1/127) \, 2);
#X obj 306 57 inlet;
#X obj 306 78 expr pow(($f1/127) \, 2);
#X text 15 16 high bongo (velocity 0-127);
#X text 257 37 low bongo (velocity 0-127);
#X obj 143 120 vline~;
#X obj 143 203 *~;
#X obj 158 183 mtof;
#X obj 158 162 r \$0-bongo_low_pitch_s;
#X obj 143 224 osc~;
#X obj 411 140 vline~;
#X obj 411 223 *~;
#X obj 426 203 mtof;
#X obj 411 244 osc~;
#X obj 426 182 r \$0-bongo_high_pitch_s;
#X msg 143 99 1 5 \, 0 250 5;
#X obj 62 79 t f b, f 14;
#X obj 62 240 *~;
#X obj 62 300 *~;
#X obj 143 141 pow~ 4;
#X obj 306 99 t f b, f 18;
#X obj 306 260 *~;
#X obj 306 321 *~;
#X obj 411 161 pow~ 4;
#X msg 411 119 1 5 \, 0 250 5;
#X connect 0 0 2 0;
#X connect 2 0 18 0;
#X connect 3 0 4 0;
#X connect 4 0 22 0;
#X connect 7 0 21 0;
#X connect 8 0 11 0;
#X connect 9 0 8 1;
#X connect 10 0 9 0;
#X connect 11 0 19 1;
#X connect 12 0 25 0;
#X connect 13 0 15 0;
#X connect 14 0 13 1;
#X connect 15 0 23 1;
#X connect 16 0 14 0;
#X connect 17 0 7 0;
#X connect 18 0 19 0;
#X connect 18 1 17 0;
#X connect 19 0 20 0;
#X connect 20 0 1 0;
#X connect 21 0 8 0;
#X connect 21 0 20 1;
#X connect 22 0 23 0;
#X connect 22 1 26 0;
#X connect 23 0 24 0;
#X connect 24 0 1 0;
#X connect 25 0 13 0;
#X connect 25 0 24 1;
#X connect 26 0 12 0;
#X restore 620 459 pd bongos;
#N canvas 704 23 736 851 toms 0;
#X obj 62 37 inlet;
#X obj 212 207 inlet;
#X obj 365 377 inlet;
#X obj 62 794 outlet~;
#X obj 365 398 expr pow(($f1/127) \, 2);
#X obj 212 228 expr pow(($f1/127) \, 2);
#X obj 62 58 expr pow(($f1/127) \, 2);
#X obj 515 547 inlet;
#X obj 515 568 expr pow(($f1/127) \, 2);
#X text 13 17 low tom (velocity 0-127);
#X text 159 187 low mid tom (velocity 0-127);
#X text 314 357 high mid tom (velocity 0-127);
#X text 464 527 high tom (velocity 0-127);
#X obj 62 79 t f b, f 8;
#X obj 62 245 *~;
#X obj 62 266 *~;
#X msg 107 104 1 5 \, 0 300 5;
#X obj 107 208 *~;
#X obj 107 125 vline~;
#X obj 107 146 pow~ 2;
#X obj 122 167 r \$0-tom_low_pitch_s;
#X obj 122 188 mtof;
#X obj 107 229 osc~;
#X obj 212 249 t f b, f 8;
#X obj 212 415 *~;
#X obj 212 436 *~;
#X msg 257 274 1 5 \, 0 300 5;
#X obj 257 378 *~;
#X obj 257 295 vline~;
#X obj 257 316 pow~ 2;
#X obj 272 358 mtof;
#X obj 257 399 osc~;
#X obj 365 419 t f b, f 8;
#X obj 365 585 *~;
#X obj 365 606 *~;
#X msg 410 444 1 5 \, 0 300 5;
#X obj 410 548 *~;
#X obj 410 465 vline~;
#X obj 410 486 pow~ 2;
#X obj 425 528 mtof;
#X obj 410 569 osc~;
#X obj 515 589 t f b, f 8;
#X obj 515 755 *~;
#X obj 515 776 *~;
#X msg 560 614 1 5 \, 0 300 5;
#X obj 560 718 *~;
#X obj 560 635 vline~;
#X obj 560 656 pow~ 2;
#X obj 575 698 mtof;
#X obj 560 739 osc~;
#X obj 272 337 r \$0-tom_low_mid_pitch_s;
#X obj 425 507 r \$0-tom_high_mid_pitch_s;
#X obj 575 677 r \$0-tom_high_pitch_s;
#X connect 0 0 6 0;
#X connect 1 0 5 0;
#X connect 2 0 4 0;
#X connect 4 0 32 0;
#X connect 5 0 23 0;
#X connect 6 0 13 0;
#X connect 7 0 8 0;
#X connect 8 0 41 0;
#X connect 13 0 14 0;
#X connect 13 1 16 0;
#X connect 14 0 15 0;
#X connect 15 0 3 0;
#X connect 16 0 18 0;
#X connect 17 0 22 0;
#X connect 18 0 19 0;
#X connect 19 0 17 0;
#X connect 19 0 15 1;
#X connect 20 0 21 0;
#X connect 21 0 17 1;
#X connect 22 0 14 1;
#X connect 23 0 24 0;
#X connect 23 1 26 0;
#X connect 24 0 25 0;
#X connect 25 0 3 0;
#X connect 26 0 28 0;
#X connect 27 0 31 0;
#X connect 28 0 29 0;
#X connect 29 0 27 0;
#X connect 29 0 25 1;
#X connect 30 0 27 1;
#X connect 31 0 24 1;
#X connect 32 0 33 0;
#X connect 32 1 35 0;
#X connect 33 0 34 0;
#X connect 34 0 3 0;
#X connect 35 0 37 0;
#X connect 36 0 40 0;
#X connect 37 0 38 0;
#X connect 38 0 36 0;
#X connect 38 0 34 1;
#X connect 39 0 36 1;
#X connect 40 0 33 1;
#X connect 41 0 42 0;
#X connect 41 1 44 0;
#X connect 42 0 43 0;
#X connect 43 0 3 0;
#X connect 44 0 46 0;
#X connect 45 0 49 0;
#X connect 46 0 47 0;
#X connect 47 0 45 0;
#X connect 47 0 43 1;
#X connect 48 0 45 1;
#X connect 49 0 42 1;
#X connect 50 0 30 0;
#X connect 51 0 39 0;
#X connect 52 0 48 0;
#X restore 353 459 pd toms;
#N canvas 0 23 720 757 congas 0;
#X obj 62 37 inlet;
#X obj 62 709 outlet~;
#X obj 62 58 expr pow(($f1/127) \, 2);
#X obj 302 37 inlet;
#X obj 302 58 expr pow(($f1/127) \, 2);
#X obj 482 247 inlet;
#X obj 482 268 expr pow(($f1/127) \, 2);
#X text 15 16 mute high conga (velocity 0-127);
#X text 433 227 low conga (velocity 0-127);
#X obj 143 121 vline~;
#X obj 143 253 *~;
#X obj 158 233 mtof;
#X obj 143 274 osc~;
#X obj 377 120 vline~;
#X obj 377 246 *~;
#X obj 392 226 mtof;
#X obj 377 267 osc~;
#X obj 557 330 vline~;
#X obj 557 456 *~;
#X obj 572 436 mtof;
#X obj 557 477 osc~;
#X obj 392 205 r \$0-conga_high_pitch_s;
#X obj 158 212 r \$0-conga_high_pitch_s;
#X obj 572 415 r \$0-conga_low_pitch_s;
#X obj 62 79 t f b, f 14;
#X obj 62 290 *~;
#X obj 143 142 pow~ 4;
#X obj 62 351 *~;
#X obj 302 79 t f b, f 13;
#X obj 302 283 *~;
#X obj 482 289 t f b, f 13;
#X obj 482 493 *~;
#X text 253 17 open high conga (velocity 0-127);
#X obj 302 344 *~;
#X obj 377 141 pow~ 4;
#X obj 482 564 *~;
#X obj 557 351 pow~ 4;
#X msg 143 100 1 5 \, 0 80 5;
#X msg 377 99 1 5 \, 0 250 5;
#X obj 143 163 /~ 4;
#X obj 143 184 +~ 0.75;
#X obj 377 162 /~ 4;
#X obj 377 183 +~ 0.75;
#X obj 557 372 /~ 4;
#X obj 557 393 +~ 0.75;
#X msg 557 309 1 5 \, 0 250 5;
#X connect 0 0 2 0;
#X connect 2 0 24 0;
#X connect 3 0 4 0;
#X connect 4 0 28 0;
#X connect 5 0 6 0;
#X connect 6 0 30 0;
#X connect 9 0 26 0;
#X connect 10 0 12 0;
#X connect 11 0 10 1;
#X connect 12 0 25 1;
#X connect 13 0 34 0;
#X connect 14 0 16 0;
#X connect 15 0 14 1;
#X connect 16 0 29 1;
#X connect 17 0 36 0;
#X connect 18 0 20 0;
#X connect 19 0 18 1;
#X connect 20 0 31 1;
#X connect 21 0 15 0;
#X connect 22 0 11 0;
#X connect 23 0 19 0;
#X connect 24 0 25 0;
#X connect 24 1 37 0;
#X connect 25 0 27 0;
#X connect 26 0 27 1;
#X connect 26 0 39 0;
#X connect 27 0 1 0;
#X connect 28 0 29 0;
#X connect 28 1 38 0;
#X connect 29 0 33 0;
#X connect 30 0 31 0;
#X connect 30 1 45 0;
#X connect 31 0 35 0;
#X connect 33 0 1 0;
#X connect 34 0 33 1;
#X connect 34 0 41 0;
#X connect 35 0 1 0;
#X connect 36 0 35 1;
#X connect 36 0 43 0;
#X connect 37 0 9 0;
#X connect 38 0 13 0;
#X connect 39 0 40 0;
#X connect 40 0 10 0;
#X connect 41 0 42 0;
#X connect 42 0 14 0;
#X connect 43 0 44 0;
#X connect 44 0 18 0;
#X connect 45 0 17 0;
#X restore 682 459 pd congas;
#X obj 560 20 cnv 2 2 60 empty empty empty 20 12 0 14 -1 -66577 0;
#X floatatom 733 40 6 20 20000 0 - #0-conga_low_pitch_r #0-conga_low_pitch_s
, f 6;
#X floatatom 733 60 6 0 0 0 - #0-conga_high_pitch_r #0-conga_high_pitch_s
, f 6;
#X text 680 40 low;
#X text 703 23 CONGAS;
#X text 680 60 high;
#X obj 672 20 cnv 2 2 60 empty empty empty 20 12 0 14 -1 -66577 0;
#X floatatom 622 40 6 20 20000 0 - #0-bongo_low_pitch_r #0-bongo_low_pitch_s
, f 6;
#X floatatom 622 60 6 0 0 0 - #0-bongo_high_pitch_r #0-bongo_high_pitch_s
, f 6;
#X text 569 40 low;
#X text 569 60 high;
#X text 591 23 BONGOS;
#X text 128 83 HANDCLAP;
#X text 357 40 low;
#X text 217 83 RIDE;
#X text 281 83 CRASH;
#X text 352 83 HIGH CYMBAL;
#X text 461 83 TAMBOURINE;
#X text 556 83 SPLASH;
#X text 621 83 COWBELL;
#X text 692 83 VIBRASLAP;
#X floatatom 180 83 5 0 0 0 - #0-handclap_lowpass_r #0-handclap_lowpass_s
, f 5;
#X floatatom 245 83 5 0 0 0 - #0-ride_highpass_r #0-ride_highpass_s
, f 5;
#X floatatom 315 83 5 0 0 0 - #0-crash_lowpass_r #0-crash_lowpass_s
, f 5;
#X floatatom 422 83 5 0 0 0 - #0-high_cymbal_highpass_r #0-high_cymbal_highpass_s
, f 5;
#X floatatom 525 83 4 0 0 0 - #0-tambourine_length_r #0-tambourine_length_s
, f 4;
#X floatatom 596 83 3 0 0 0 - #0-splash_depth_r #0-splash_depth_s,
f 3;
#X floatatom 667 83 3 0 0 0 - #0-cowbell_pitch_r #0-cowbell_pitch_s
, f 3;
#X floatatom 750 83 4 0 0.99 0 - #0-vibraslap_decay_r #0-vibraslap_decay_s
, f 4;
#X text 393 23 TOMS (MIDI PITCHES);
#X text 242 60 width;
#N canvas 777 23 531 530 floor_toms 0;
#X obj 62 37 inlet;
#X obj 292 57 inlet;
#X obj 62 493 outlet~;
#X obj 292 78 expr pow(($f1/127) \, 2);
#X obj 62 58 expr pow(($f1/127) \, 2);
#X text 13 17 low tom (velocity 0-127);
#X text 239 37 high tom (velocity 0-127);
#X obj 62 79 t f b, f 13;
#X obj 62 340 *~, f 13;
#X obj 137 172 pow~ 2;
#X obj 137 234 *~;
#X obj 152 193 r \$0-tom_low_pitch_s;
#X obj 152 214 mtof;
#X obj 62 360 *~;
#X obj 137 255 osc~;
#X obj 137 297 +~;
#X obj 137 318 osc~;
#X obj 137 121 vline~;
#X obj 137 276 *~ 20;
#X obj 292 99 t f b, f 13;
#X obj 292 360 *~, f 13;
#X obj 367 192 pow~ 2;
#X obj 367 254 *~;
#X obj 382 234 mtof;
#X obj 292 380 *~;
#X obj 367 275 osc~;
#X obj 367 317 +~;
#X obj 367 338 osc~;
#X obj 367 141 vline~;
#X obj 367 296 *~ 20;
#X obj 382 213 r \$0-tom_high_pitch_s;
#X msg 137 100 1 5 \, 0 300 5;
#X msg 367 120 1 5 \, 0 300 5;
#X obj 62 472 *~ 0.8;
#X connect 0 0 4 0;
#X connect 1 0 3 0;
#X connect 3 0 19 0;
#X connect 4 0 7 0;
#X connect 7 0 8 0;
#X connect 7 1 31 0;
#X connect 8 0 13 0;
#X connect 9 0 10 0;
#X connect 10 0 14 0;
#X connect 10 0 15 1;
#X connect 11 0 12 0;
#X connect 12 0 10 1;
#X connect 13 0 33 0;
#X connect 14 0 18 0;
#X connect 15 0 16 0;
#X connect 16 0 8 1;
#X connect 17 0 9 0;
#X connect 17 0 13 1;
#X connect 18 0 15 0;
#X connect 19 0 20 0;
#X connect 19 1 32 0;
#X connect 20 0 24 0;
#X connect 21 0 22 0;
#X connect 22 0 25 0;
#X connect 22 0 26 1;
#X connect 23 0 22 1;
#X connect 24 0 33 0;
#X connect 25 0 29 0;
#X connect 26 0 27 0;
#X connect 27 0 20 1;
#X connect 28 0 21 0;
#X connect 28 0 24 1;
#X connect 29 0 26 0;
#X connect 30 0 23 0;
#X connect 31 0 17 0;
#X connect 32 0 28 0;
#X connect 33 0 2 0;
#X restore 217 459 pd floor_toms;
#N canvas 57 23 817 855 misc_high_perc 0;
#X obj 12 37 inlet;
#X obj 92 284 inlet;
#X obj 12 749 outlet~;
#X obj 92 305 expr pow(($f1/127) \, 2);
#X obj 12 58 expr pow(($f1/127) \, 2);
#X text 3 17 high/chinese cymbal (velocity 0-127);
#X text 49 264 tambourine (velocity 0-127);
#X obj 252 374 inlet;
#X obj 252 395 expr pow(($f1/127) \, 2);
#X text 209 354 splash cymbal (velocity 0-127);
#X obj 439 43 inlet;
#X obj 439 64 expr pow(($f1/127) \, 2);
#X text 396 23 cowbell (velocity 0-127);
#X obj 527 387 inlet;
#X obj 527 408 expr pow(($f1/127) \, 2);
#X text 484 367 vibraslap (velocity 0-127);
#X obj 12 262 *~;
#X obj 27 179 noise~;
#X obj 39 120 line~;
#X obj 115 200 loadbang;
#X obj 204 221 r \$0-high_cymbal_highpass_s;
#X obj 119 388 line~;
#X obj 119 531 *~;
#X obj 134 441 noise~;
#X obj 134 326 r \$0-tambourine_length_s;
#X obj 279 458 line~;
#X obj 252 538 *~;
#X obj 267 517 noise~;
#X obj 309 581 r \$0-splash_depth_s;
#X obj 280 540 loadbang;
#X obj 466 139 vline~;
#X obj 466 160 pow~ 4;
#X obj 481 198 r \$0-cowbell_pitch_s;
#X obj 481 219 mtof;
#X obj 439 635 *~, f 5;
#X obj 466 283 osc~;
#X obj 466 262 *~;
#X obj 466 325 +~, f 7;
#X obj 481 240 t f f, f 8;
#X obj 466 346 osc~;
#X obj 527 510 line~;
#X obj 527 551 *~;
#X obj 542 530 noise~;
#X obj 674 643 r \$0-vibraslap_decay_s;
#X msg 115 221 1;
#X obj 168 462 loadbang;
#X obj 134 507 bp~, f 12;
#X obj 12 79 t f b;
#X obj 12 157 *~;
#X obj 39 141 pow~ 4;
#X obj 252 416 t f b;
#X obj 252 495 *~;
#X msg 279 437 1 \, 0 5000;
#X obj 279 479 pow~ 12;
#X obj 439 85 t f b;
#X obj 439 176 *~;
#X msg 466 118 1 5 \, 0 400 5;
#X obj 466 304 *~ 25;
#X msg 527 489 \$1 \, 0 40;
#X obj 561 551 loadbang;
#X obj 527 429 t f b, f 17;
#X obj 626 643 line~;
#X obj 487 696 *~ 1;
#X obj 527 593 bp~, f 12;
#X msg 561 572 5000;
#X msg 596 572 2;
#X msg 626 622 60 \, 0 800;
#X msg 39 99 1 \, 0 3000;
#X obj 119 409 pow~ 4;
#X msg 203 487 50;
#X msg 168 487 10000;
#X obj 92 326 t f b;
#X obj 119 346 f;
#X obj 92 552 *~, f 5;
#X msg 119 366 1 \, 0 \$1;
#X obj 252 622 *~ 0.1;
#X obj 27 241 ufilter/headless/filterchainhp;
#X obj 527 665 ufilter/headless/echo, f 25;
#X obj 252 601 bp~, f 10;
#X msg 280 561 8000;
#X connect 0 0 4 0;
#X connect 1 0 3 0;
#X connect 3 0 71 0;
#X connect 4 0 47 0;
#X connect 7 0 8 0;
#X connect 8 0 50 0;
#X connect 10 0 11 0;
#X connect 11 0 54 0;
#X connect 13 0 14 0;
#X connect 14 0 60 0;
#X connect 16 0 2 0;
#X connect 17 0 76 0;
#X connect 18 0 49 0;
#X connect 19 0 44 0;
#X connect 20 0 76 2;
#X connect 21 0 68 0;
#X connect 22 0 73 1;
#X connect 23 0 46 0;
#X connect 24 0 72 1;
#X connect 25 0 53 0;
#X connect 26 0 78 0;
#X connect 27 0 26 1;
#X connect 28 0 78 2;
#X connect 29 0 79 0;
#X connect 30 0 31 0;
#X connect 31 0 55 1;
#X connect 31 0 36 0;
#X connect 32 0 33 0;
#X connect 33 0 38 0;
#X connect 34 0 2 0;
#X connect 35 0 57 0;
#X connect 36 0 35 0;
#X connect 37 0 39 0;
#X connect 38 0 36 1;
#X connect 38 1 37 1;
#X connect 39 0 34 1;
#X connect 40 0 41 0;
#X connect 41 0 63 0;
#X connect 42 0 41 1;
#X connect 43 0 77 2;
#X connect 44 0 76 1;
#X connect 45 0 70 0;
#X connect 45 0 69 0;
#X connect 46 0 22 1;
#X connect 47 0 48 0;
#X connect 47 1 67 0;
#X connect 48 0 16 0;
#X connect 49 0 48 1;
#X connect 50 0 51 0;
#X connect 50 1 52 0;
#X connect 51 0 26 0;
#X connect 52 0 25 0;
#X connect 53 0 51 1;
#X connect 54 0 55 0;
#X connect 54 1 56 0;
#X connect 55 0 34 0;
#X connect 56 0 30 0;
#X connect 57 0 37 0;
#X connect 58 0 40 0;
#X connect 59 0 64 0;
#X connect 59 0 65 0;
#X connect 60 0 58 0;
#X connect 60 1 66 0;
#X connect 61 0 77 1;
#X connect 62 0 2 0;
#X connect 63 0 62 0;
#X connect 63 0 77 0;
#X connect 64 0 63 1;
#X connect 65 0 63 2;
#X connect 66 0 61 0;
#X connect 67 0 18 0;
#X connect 68 0 22 0;
#X connect 69 0 46 2;
#X connect 70 0 46 1;
#X connect 71 0 73 0;
#X connect 71 1 72 0;
#X connect 72 0 74 0;
#X connect 73 0 2 0;
#X connect 74 0 21 0;
#X connect 75 0 2 0;
#X connect 76 0 16 1;
#X connect 77 0 62 0;
#X connect 78 0 75 0;
#X connect 79 0 78 1;
#X restore 404 459 pd misc_high_perc;
#N canvas 0 23 1440 726 mixing 0;
#X obj 11 57 inlet~;
#X obj 11 148 *~;
#X obj 11 349 *~, f 4;
#X obj 32 239 pow 2;
#X obj 32 216 expr 2-$f1;
#X obj 11 389 *~, f 8;
#X obj 77 269 pow 2;
#X obj 32 196 t f f, f 8;
#X obj 399 666 outlet~;
#X obj 909 666 outlet~;
#X obj 141 57 inlet~;
#X obj 141 148 *~;
#X obj 271 57 inlet~;
#X obj 271 148 *~;
#X obj 421 57 inlet~;
#X obj 421 148 *~;
#X obj 571 57 inlet~;
#X obj 571 148 *~;
#X obj 691 57 inlet~;
#X obj 691 148 *~;
#X obj 811 57 inlet~;
#X obj 811 148 *~;
#X obj 931 57 inlet~;
#X obj 931 148 *~;
#X obj 1061 57 inlet~;
#X obj 1061 148 *~;
#X obj 1181 57 inlet~;
#X obj 1181 148 *~;
#X obj 286 77 r \$0-handclap_vol_s;
#X obj 292 175 r \$0-handclap_pan_s;
#X obj 436 77 r \$0-floor_tom_vol_s;
#X obj 442 175 r \$0-floor_tom_pan_s;
#X obj 586 77 r \$0-hat_vol_s;
#X obj 592 175 r \$0-hat_pan_s;
#X obj 706 77 r \$0-tom_vol_s;
#X obj 712 175 r \$0-tom_pan_s;
#X obj 826 77 r \$0-misc_vol_s;
#X obj 832 175 r \$0-misc_pan_s;
#X obj 946 77 r \$0-crash_vol_s;
#X obj 952 175 r \$0-crash_pan_s;
#X obj 1076 77 r \$0-ride_vol_s;
#X obj 1082 175 r \$0-ride_pan_s;
#X obj 26 77 r \$0-kick_vol_s;
#X obj 32 175 r \$0-kick_pan_s;
#X obj 156 77 r \$0-snare_vol_s;
#X obj 162 175 r \$0-snare_pan_s;
#X obj 1196 77 r \$0-bongo_vol_s;
#X obj 1202 175 r \$0-bongo_pan_s;
#X obj 1311 57 inlet~;
#X obj 1311 148 *~;
#X obj 1326 77 r \$0-conga_vol_s;
#X obj 1332 175 r \$0-conga_pan_s;
#X msg 32 307 \$1 20;
#X obj 32 328 line~;
#X msg 77 347 \$1 20;
#X obj 77 368 line~;
#X obj 141 349 *~, f 4;
#X obj 162 239 pow 2;
#X obj 162 216 expr 2-$f1;
#X obj 141 389 *~, f 8;
#X obj 207 269 pow 2;
#X obj 162 196 t f f, f 8;
#X msg 162 307 \$1 20;
#X obj 162 328 line~;
#X msg 207 347 \$1 20;
#X obj 207 368 line~;
#X obj 271 349 *~, f 4;
#X obj 292 239 pow 2;
#X obj 292 216 expr 2-$f1;
#X obj 271 389 *~, f 8;
#X obj 337 269 pow 2;
#X obj 292 196 t f f, f 8;
#X msg 292 307 \$1 20;
#X obj 292 328 line~;
#X msg 337 347 \$1 20;
#X obj 337 368 line~;
#X obj 421 349 *~, f 4;
#X obj 442 239 pow 2;
#X obj 442 216 expr 2-$f1;
#X obj 421 389 *~, f 8;
#X obj 487 269 pow 2;
#X obj 442 196 t f f, f 8;
#X msg 442 307 \$1 20;
#X obj 442 328 line~;
#X msg 487 347 \$1 20;
#X obj 487 368 line~;
#X obj 571 349 *~, f 4;
#X obj 592 239 pow 2;
#X obj 592 216 expr 2-$f1;
#X obj 571 389 *~, f 8;
#X obj 637 269 pow 2;
#X obj 592 196 t f f, f 8;
#X msg 592 307 \$1 20;
#X obj 592 328 line~;
#X msg 637 347 \$1 20;
#X obj 637 368 line~;
#X obj 691 349 *~, f 4;
#X obj 712 239 pow 2;
#X obj 712 216 expr 2-$f1;
#X obj 691 389 *~, f 8;
#X obj 757 269 pow 2;
#X obj 712 196 t f f, f 8;
#X msg 712 307 \$1 20;
#X obj 712 328 line~;
#X msg 757 347 \$1 20;
#X obj 757 368 line~;
#X obj 811 349 *~, f 4;
#X obj 832 239 pow 2;
#X obj 832 216 expr 2-$f1;
#X obj 811 389 *~, f 8;
#X obj 877 269 pow 2;
#X obj 832 196 t f f, f 8;
#X msg 832 307 \$1 20;
#X obj 832 328 line~;
#X msg 877 347 \$1 20;
#X obj 877 368 line~;
#X obj 931 349 *~, f 4;
#X obj 952 239 pow 2;
#X obj 952 216 expr 2-$f1;
#X obj 931 389 *~, f 8;
#X obj 997 269 pow 2;
#X obj 952 196 t f f, f 8;
#X msg 952 307 \$1 20;
#X obj 952 328 line~;
#X msg 997 347 \$1 20;
#X obj 997 368 line~;
#X obj 1061 349 *~, f 4;
#X obj 1082 239 pow 2;
#X obj 1082 216 expr 2-$f1;
#X obj 1061 389 *~, f 8;
#X obj 1127 269 pow 2;
#X obj 1082 196 t f f, f 8;
#X msg 1082 307 \$1 20;
#X obj 1082 328 line~;
#X msg 1127 347 \$1 20;
#X obj 1127 368 line~;
#X obj 1181 349 *~, f 4;
#X obj 1202 239 pow 2;
#X obj 1202 216 expr 2-$f1;
#X obj 1181 389 *~, f 8;
#X obj 1247 269 pow 2;
#X obj 1202 196 t f f, f 8;
#X msg 1202 307 \$1 20;
#X obj 1202 328 line~;
#X msg 1247 347 \$1 20;
#X obj 1247 368 line~;
#X obj 1311 349 *~, f 4;
#X obj 1332 239 pow 2;
#X obj 1332 216 expr 2-$f1;
#X obj 1311 389 *~, f 8;
#X obj 1377 269 pow 2;
#X obj 1332 196 t f f, f 8;
#X msg 1332 307 \$1 20;
#X obj 1332 328 line~;
#X msg 1377 347 \$1 20;
#X obj 1377 368 line~;
#N canvas 276 99 450 300 smoothing 0;
#X obj 28 135 expr if($f1 == 0.02 \, 0 \, $f1);
#X msg 28 156 \$1 20;
#X obj 28 177 line~;
#X obj 28 114 inlet;
#X obj 28 198 outlet~;
#X connect 0 0 1 0;
#X connect 1 0 2 0;
#X connect 2 0 4 0;
#X connect 3 0 0 0;
#X restore 26 98 pd smoothing;
#N canvas 276 99 450 300 smoothing 0;
#X obj 28 135 expr if($f1 == 0.02 \, 0 \, $f1);
#X msg 28 156 \$1 20;
#X obj 28 177 line~;
#X obj 28 114 inlet;
#X obj 28 198 outlet~;
#X connect 0 0 1 0;
#X connect 1 0 2 0;
#X connect 2 0 4 0;
#X connect 3 0 0 0;
#X restore 156 98 pd smoothing;
#N canvas 276 99 450 300 smoothing 0;
#X obj 28 135 expr if($f1 == 0.02 \, 0 \, $f1);
#X msg 28 156 \$1 20;
#X obj 28 177 line~;
#X obj 28 114 inlet;
#X obj 28 198 outlet~;
#X connect 0 0 1 0;
#X connect 1 0 2 0;
#X connect 2 0 4 0;
#X connect 3 0 0 0;
#X restore 286 98 pd smoothing;
#N canvas 276 99 450 300 smoothing 0;
#X obj 28 135 expr if($f1 == 0.02 \, 0 \, $f1);
#X msg 28 156 \$1 20;
#X obj 28 177 line~;
#X obj 28 114 inlet;
#X obj 28 198 outlet~;
#X connect 0 0 1 0;
#X connect 1 0 2 0;
#X connect 2 0 4 0;
#X connect 3 0 0 0;
#X restore 436 98 pd smoothing;
#N canvas 276 99 450 300 smoothing 0;
#X obj 28 135 expr if($f1 == 0.02 \, 0 \, $f1);
#X msg 28 156 \$1 20;
#X obj 28 177 line~;
#X obj 28 114 inlet;
#X obj 28 198 outlet~;
#X connect 0 0 1 0;
#X connect 1 0 2 0;
#X connect 2 0 4 0;
#X connect 3 0 0 0;
#X restore 586 98 pd smoothing;
#N canvas 276 99 450 300 smoothing 0;
#X obj 28 135 expr if($f1 == 0.02 \, 0 \, $f1);
#X msg 28 156 \$1 20;
#X obj 28 177 line~;
#X obj 28 114 inlet;
#X obj 28 198 outlet~;
#X connect 0 0 1 0;
#X connect 1 0 2 0;
#X connect 2 0 4 0;
#X connect 3 0 0 0;
#X restore 706 98 pd smoothing;
#N canvas 276 99 450 300 smoothing 0;
#X obj 28 135 expr if($f1 == 0.02 \, 0 \, $f1);
#X msg 28 156 \$1 20;
#X obj 28 177 line~;
#X obj 28 114 inlet;
#X obj 28 198 outlet~;
#X connect 0 0 1 0;
#X connect 1 0 2 0;
#X connect 2 0 4 0;
#X connect 3 0 0 0;
#X restore 826 98 pd smoothing;
#N canvas 276 99 450 300 smoothing 0;
#X obj 28 135 expr if($f1 == 0.02 \, 0 \, $f1);
#X msg 28 156 \$1 20;
#X obj 28 177 line~;
#X obj 28 114 inlet;
#X obj 28 198 outlet~;
#X connect 0 0 1 0;
#X connect 1 0 2 0;
#X connect 2 0 4 0;
#X connect 3 0 0 0;
#X restore 946 98 pd smoothing;
#N canvas 276 99 450 300 smoothing 0;
#X obj 28 135 expr if($f1 == 0.02 \, 0 \, $f1);
#X msg 28 156 \$1 20;
#X obj 28 177 line~;
#X obj 28 114 inlet;
#X obj 28 198 outlet~;
#X connect 0 0 1 0;
#X connect 1 0 2 0;
#X connect 2 0 4 0;
#X connect 3 0 0 0;
#X restore 1076 98 pd smoothing;
#N canvas 276 99 450 300 smoothing 0;
#X obj 28 135 expr if($f1 == 0.02 \, 0 \, $f1);
#X msg 28 156 \$1 20;
#X obj 28 177 line~;
#X obj 28 114 inlet;
#X obj 28 198 outlet~;
#X connect 0 0 1 0;
#X connect 1 0 2 0;
#X connect 2 0 4 0;
#X connect 3 0 0 0;
#X restore 1196 98 pd smoothing;
#N canvas 276 99 450 300 smoothing 0;
#X obj 28 135 expr if($f1 == 0.02 \, 0 \, $f1);
#X msg 28 156 \$1 20;
#X obj 28 177 line~;
#X obj 28 114 inlet;
#X obj 28 198 outlet~, f 108;
#X connect 0 0 1 0;
#X connect 1 0 2 0;
#X connect 2 0 4 0;
#X connect 3 0 0 0;
#X restore 1326 98 pd smoothing;
#X connect 0 0 1 0;
#X connect 1 0 2 0;
#X connect 1 0 5 0;
#X connect 2 0 8 0;
#X connect 3 0 52 0;
#X connect 4 0 3 0;
#X connect 5 0 9 0;
#X connect 6 0 54 0;
#X connect 7 0 4 0;
#X connect 7 1 6 0;
#X connect 10 0 11 0;
#X connect 11 0 56 0;
#X connect 11 0 59 0;
#X connect 12 0 13 0;
#X connect 13 0 66 0;
#X connect 13 0 69 0;
#X connect 14 0 15 0;
#X connect 15 0 76 0;
#X connect 15 0 79 0;
#X connect 16 0 17 0;
#X connect 17 0 86 0;
#X connect 17 0 89 0;
#X connect 18 0 19 0;
#X connect 19 0 96 0;
#X connect 19 0 99 0;
#X connect 20 0 21 0;
#X connect 21 0 106 0;
#X connect 21 0 109 0;
#X connect 22 0 23 0;
#X connect 23 0 116 0;
#X connect 23 0 119 0;
#X connect 24 0 25 0;
#X connect 25 0 126 0;
#X connect 25 0 129 0;
#X connect 26 0 27 0;
#X connect 27 0 136 0;
#X connect 27 0 139 0;
#X connect 28 0 158 0;
#X connect 29 0 71 0;
#X connect 30 0 159 0;
#X connect 31 0 81 0;
#X connect 32 0 160 0;
#X connect 33 0 91 0;
#X connect 34 0 161 0;
#X connect 35 0 101 0;
#X connect 36 0 162 0;
#X connect 37 0 111 0;
#X connect 38 0 163 0;
#X connect 39 0 121 0;
#X connect 40 0 164 0;
#X connect 41 0 131 0;
#X connect 42 0 156 0;
#X connect 43 0 7 0;
#X connect 44 0 157 0;
#X connect 45 0 61 0;
#X connect 46 0 165 0;
#X connect 47 0 141 0;
#X connect 48 0 49 0;
#X connect 49 0 146 0;
#X connect 49 0 149 0;
#X connect 50 0 166 0;
#X connect 51 0 151 0;
#X connect 52 0 53 0;
#X connect 53 0 2 1;
#X connect 54 0 55 0;
#X connect 55 0 5 1;
#X connect 56 0 8 0;
#X connect 57 0 62 0;
#X connect 58 0 57 0;
#X connect 59 0 9 0;
#X connect 60 0 64 0;
#X connect 61 0 58 0;
#X connect 61 1 60 0;
#X connect 62 0 63 0;
#X connect 63 0 56 1;
#X connect 64 0 65 0;
#X connect 65 0 59 1;
#X connect 66 0 8 0;
#X connect 67 0 72 0;
#X connect 68 0 67 0;
#X connect 69 0 9 0;
#X connect 70 0 74 0;
#X connect 71 0 68 0;
#X connect 71 1 70 0;
#X connect 72 0 73 0;
#X connect 73 0 66 1;
#X connect 74 0 75 0;
#X connect 75 0 69 1;
#X connect 76 0 8 0;
#X connect 77 0 82 0;
#X connect 78 0 77 0;
#X connect 79 0 9 0;
#X connect 80 0 84 0;
#X connect 81 0 78 0;
#X connect 81 1 80 0;
#X connect 82 0 83 0;
#X connect 83 0 76 1;
#X connect 84 0 85 0;
#X connect 85 0 79 1;
#X connect 86 0 8 0;
#X connect 87 0 92 0;
#X connect 88 0 87 0;
#X connect 89 0 9 0;
#X connect 90 0 94 0;
#X connect 91 0 88 0;
#X connect 91 1 90 0;
#X connect 92 0 93 0;
#X connect 93 0 86 1;
#X connect 94 0 95 0;
#X connect 95 0 89 1;
#X connect 96 0 8 0;
#X connect 97 0 102 0;
#X connect 98 0 97 0;
#X connect 99 0 9 0;
#X connect 100 0 104 0;
#X connect 101 0 98 0;
#X connect 101 1 100 0;
#X connect 102 0 103 0;
#X connect 103 0 96 1;
#X connect 104 0 105 0;
#X connect 105 0 99 1;
#X connect 106 0 8 0;
#X connect 107 0 112 0;
#X connect 108 0 107 0;
#X connect 109 0 9 0;
#X connect 110 0 114 0;
#X connect 111 0 108 0;
#X connect 111 1 110 0;
#X connect 112 0 113 0;
#X connect 113 0 106 1;
#X connect 114 0 115 0;
#X connect 115 0 109 1;
#X connect 116 0 8 0;
#X connect 117 0 122 0;
#X connect 118 0 117 0;
#X connect 119 0 9 0;
#X connect 120 0 124 0;
#X connect 121 0 118 0;
#X connect 121 1 120 0;
#X connect 122 0 123 0;
#X connect 123 0 116 1;
#X connect 124 0 125 0;
#X connect 125 0 119 1;
#X connect 126 0 8 0;
#X connect 127 0 132 0;
#X connect 128 0 127 0;
#X connect 129 0 9 0;
#X connect 130 0 134 0;
#X connect 131 0 128 0;
#X connect 131 1 130 0;
#X connect 132 0 133 0;
#X connect 133 0 126 1;
#X connect 134 0 135 0;
#X connect 135 0 129 1;
#X connect 136 0 8 0;
#X connect 137 0 142 0;
#X connect 138 0 137 0;
#X connect 139 0 9 0;
#X connect 140 0 144 0;
#X connect 141 0 138 0;
#X connect 141 1 140 0;
#X connect 142 0 143 0;
#X connect 143 0 136 1;
#X connect 144 0 145 0;
#X connect 145 0 139 1;
#X connect 146 0 8 0;
#X connect 147 0 152 0;
#X connect 148 0 147 0;
#X connect 149 0 9 0;
#X connect 150 0 154 0;
#X connect 151 0 148 0;
#X connect 151 1 150 0;
#X connect 152 0 153 0;
#X connect 153 0 146 1;
#X connect 154 0 155 0;
#X connect 155 0 149 1;
#X connect 156 0 1 1;
#X connect 157 0 11 1;
#X connect 158 0 13 1;
#X connect 159 0 15 1;
#X connect 160 0 17 1;
#X connect 161 0 19 1;
#X connect 162 0 21 1;
#X connect 163 0 23 1;
#X connect 164 0 25 1;
#X connect 165 0 27 1;
#X connect 166 0 49 1;
#X restore 37 489 pd mixing, f 108;
#X obj 37 510 outlet~;
#X obj 682 511 outlet~;
#X text 40 104 KICK;
#X text 104 104 SNARE;
#X text 166 104 HANDCLAP;
#X text 229 104 FLOOR TOMS;
#X text 312 104 HI HAT;
#X text 387 104 TOMS;
#X text 427 104 MISC HIGH PERC;
#X text 520 104 CRASHES;
#X text 591 104 RIDES;
#X text 660 104 BONGOS;
#X text 730 104 CONGAS;
#X obj 23 120 hsl 64 30 0.02 2 1 0 \$0-kick_vol_s \$0-kick_vol_r empty
-2 -8 0 10 -262144 -1 -1 5352 1;
#X obj 92 120 hsl 64 30 0.02 2 1 0 \$0-snare_vol_s \$0-snare_vol_r
empty -2 -8 0 10 -262144 -1 -1 5352 1;
#X obj 161 120 hsl 64 30 0.02 2 1 0 \$0-handclap_vol_s \$0-handclap_vol_r
empty -2 -8 0 10 -262144 -1 -1 5352 1;
#X obj 230 120 hsl 64 30 0.02 2 1 0 \$0-floor_tom_vol_s \$0-floor_tom_vol_r
empty -2 -8 0 10 -262144 -1 -1 5352 1;
#X obj 299 120 hsl 64 30 0.02 2 1 0 \$0-hat_vol_s \$0-hat_vol_r empty
-2 -8 0 10 -262144 -1 -1 5352 1;
#X obj 368 120 hsl 64 30 0.02 2 1 0 \$0-tom_vol_s \$0-tom_vol_r empty
-2 -8 0 10 -262144 -1 -1 5352 1;
#X obj 437 120 hsl 64 30 0.02 2 1 0 \$0-misc_vol_s \$0-misc_vol_r empty
-2 -8 0 10 -262144 -1 -1 5352 1;
#X obj 506 120 hsl 64 30 0.02 2 1 0 \$0-crash_vol_s \$0-crash_vol_r
empty -2 -8 0 10 -262144 -1 -1 5352 1;
#X obj 575 120 hsl 64 30 0.02 2 1 0 \$0-ride_vol_s \$0-ride_vol_r empty
-2 -8 0 10 -262144 -1 -1 5352 1;
#X obj 644 120 hsl 64 30 0.02 2 1 0 \$0-bongo_vol_s \$0-bongo_vol_r
empty -2 -8 0 10 -262144 -1 -1 5352 1;
#X obj 713 120 hsl 64 30 0.02 2 1 0 \$0-conga_vol_s \$0-conga_vol_r
empty -2 -8 0 10 -262144 -1 -1 5352 1;
#X obj 23 150 hsl 64 30 0 2 0 0 \$0-kick_pan_s \$0-kick_pan_r empty
-2 -8 0 10 -262144 -1 -1 3150 1;
#X obj 161 150 hsl 64 30 0 2 0 0 \$0-handclap_pan_s \$0-handclap_pan_r
empty -2 -8 0 10 -262144 -1 -1 3150 1;
#X obj 230 150 hsl 64 30 0 2 0 0 \$0-floor_tom_pan_s \$0-floor_tom_pan_r
empty -2 -8 0 10 -262144 -1 -1 3150 1;
#X obj 299 150 hsl 64 30 0 2 0 0 \$0-hat_pan_s \$0-hat_pan_r empty
-2 -8 0 10 -262144 -1 -1 3150 1;
#X obj 368 150 hsl 64 30 0 2 0 0 \$0-tom_pan_s \$0-tom_pan_r empty
-2 -8 0 10 -262144 -1 -1 3150 1;
#X obj 437 150 hsl 64 30 0 2 0 0 \$0-misc_pan_s \$0-misc_pan_r empty
-2 -8 0 10 -262144 -1 -1 3150 1;
#X obj 506 150 hsl 64 30 0 2 0 0 \$0-crash_pan_s \$0-crash_pan_r empty
-2 -8 0 10 -262144 -1 -1 3150 1;
#X obj 575 150 hsl 64 30 0 2 0 0 \$0-ride_pan_s \$0-ride_pan_r empty
-2 -8 0 10 -262144 -1 -1 3150 1;
#X obj 644 150 hsl 64 30 0 2 0 0 \$0-bongo_pan_s \$0-bongo_pan_r empty
-2 -8 0 10 -262144 -1 -1 3150 1;
#X obj 713 150 hsl 64 30 0 2 0 0 \$0-conga_pan_s \$0-conga_pan_r empty
-2 -8 0 10 -262144 -1 -1 3150 1;
#X obj 92 150 hsl 64 30 0 2 0 0 \$0-snare_pan_s \$0-snare_pan_r empty
-2 -8 0 10 -262144 -1 -1 3150 1;
#X obj 600 165 cnv 2 4 2 empty empty empty 20 12 0 14 -128992 -66577
0;
#X obj 610 165 cnv 2 4 2 empty empty empty 20 12 0 14 -128992 -66577
0;
#X obj 669 165 cnv 2 4 2 empty empty empty 20 12 0 14 -128992 -66577
0;
#X obj 679 165 cnv 2 4 2 empty empty empty 20 12 0 14 -128992 -66577
0;
#X obj 738 165 cnv 2 4 2 empty empty empty 20 12 0 14 -128992 -66577
0;
#X obj 748 165 cnv 2 4 2 empty empty empty 20 12 0 14 -128992 -66577
0;
#X obj 531 165 cnv 2 4 2 empty empty empty 20 12 0 14 -128992 -66577
0;
#X obj 541 165 cnv 2 4 2 empty empty empty 20 12 0 14 -128992 -66577
0;
#X obj 462 165 cnv 2 4 2 empty empty empty 20 12 0 14 -128992 -66577
0;
#X obj 472 165 cnv 2 4 2 empty empty empty 20 12 0 14 -128992 -66577
0;
#X obj 393 165 cnv 2 4 2 empty empty empty 20 12 0 14 -128992 -66577
0;
#X obj 403 165 cnv 2 4 2 empty empty empty 20 12 0 14 -128992 -66577
0;
#X obj 324 165 cnv 2 4 2 empty empty empty 20 12 0 14 -128992 -66577
0;
#X obj 334 165 cnv 2 4 2 empty empty empty 20 12 0 14 -128992 -66577
0;
#X obj 255 165 cnv 2 4 2 empty empty empty 20 12 0 14 -128992 -66577
0;
#X obj 265 165 cnv 2 4 2 empty empty empty 20 12 0 14 -128992 -66577
0;
#X obj 186 165 cnv 2 4 2 empty empty empty 20 12 0 14 -128992 -66577
0;
#X obj 196 165 cnv 2 4 2 empty empty empty 20 12 0 14 -128992 -66577
0;
#X obj 117 165 cnv 2 4 2 empty empty empty 20 12 0 14 -128992 -66577
0;
#X obj 127 165 cnv 2 4 2 empty empty empty 20 12 0 14 -128992 -66577
0;
#X obj 48 165 cnv 2 4 2 empty empty empty 20 12 0 14 -128992 -66577
0;
#X obj 58 165 cnv 2 4 2 empty empty empty 20 12 0 14 -128992 -66577
0;
#X obj 21 135 cnv 2 52 2 empty empty empty 20 12 0 14 -128992 -66577
0;
#X obj 80 135 cnv 2 8 2 empty empty empty 20 12 0 14 -258113 -66577
0;
#X obj 90 135 cnv 2 52 2 empty empty empty 20 12 0 14 -128992 -66577
0;
#X obj 159 135 cnv 2 52 2 empty empty empty 20 12 0 14 -128992 -66577
0;
#X obj 228 135 cnv 2 52 2 empty empty empty 20 12 0 14 -128992 -66577
0;
#X obj 297 135 cnv 2 52 2 empty empty empty 20 12 0 14 -128992 -66577
0;
#X obj 366 135 cnv 2 52 2 empty empty empty 20 12 0 14 -128992 -66577
0;
#X obj 435 135 cnv 2 52 2 empty empty empty 20 12 0 14 -128992 -66577
0;
#X obj 504 135 cnv 2 52 2 empty empty empty 20 12 0 14 -128992 -66577
0;
#X obj 573 135 cnv 2 52 2 empty empty empty 20 12 0 14 -128992 -66577
0;
#X obj 642 135 cnv 2 52 2 empty empty empty 20 12 0 14 -128992 -66577
0;
#X obj 711 135 cnv 2 52 2 empty empty empty 20 12 0 14 -128992 -66577
0;
#X obj 149 135 cnv 2 8 2 empty empty empty 20 12 0 14 -258113 -66577
0;
#X obj 218 135 cnv 2 8 2 empty empty empty 20 12 0 14 -258113 -66577
0;
#X obj 287 135 cnv 2 8 2 empty empty empty 20 12 0 14 -258113 -66577
0;
#X obj 356 135 cnv 2 8 2 empty empty empty 20 12 0 14 -258113 -66577
0;
#X obj 425 135 cnv 2 8 2 empty empty empty 20 12 0 14 -258113 -66577
0;
#X obj 494 135 cnv 2 8 2 empty empty empty 20 12 0 14 -258113 -66577
0;
#X obj 563 135 cnv 2 8 2 empty empty empty 20 12 0 14 -258113 -66577
0;
#X obj 632 135 cnv 2 8 2 empty empty empty 20 12 0 14 -258113 -66577
0;
#X obj 701 135 cnv 2 8 2 empty empty empty 20 12 0 14 -258113 -66577
0;
#X obj 770 135 cnv 2 8 2 empty empty empty 20 12 0 14 -258113 -66577
0;
#X obj 20 100 cnv 2 760 2 empty empty empty 20 12 0 14 -1 -66577 0
;
#N canvas 0 504 1439 374 initialize_kit 0;
#X obj 777 28 loadbang;
#X msg 27 44 500;
#X obj 27 65 s \$0-snare_lowpass_r;
#X obj 157 65 s \$0-snare_highpass_r;
#X obj 293 65 s \$0-snare_length_r;
#X msg 293 44 150;
#X msg 157 44 3600;
#X obj 507 65 s \$0-kick_pitch_r;
#X obj 623 65 s \$0-kick_length_r;
#X msg 623 44 100;
#X msg 507 44 150;
#X obj 977 98 loadbang;
#X obj 363 135 s \$0-tom_low_pitch_r;
#X obj 497 135 s \$0-tom_low_mid_pitch_r;
#X obj 653 135 s \$0-tom_high_mid_pitch_r;
#X obj 813 135 s \$0-tom_high_pitch_r;
#X obj 1007 168 loadbang;
#X obj 27 205 s \$0-bongo_low_pitch_r;
#X obj 177 205 s \$0-bongo_high_pitch_r;
#X msg 27 184 50;
#X msg 177 184 57;
#X obj 323 205 s \$0-conga_low_pitch_r;
#X msg 323 184 62;
#X msg 467 184 69;
#X obj 1327 228 loadbang;
#X obj 27 265 s \$0-handclap_lowpass_r;
#X obj 373 265 s \$0-crash_lowpass_r;
#X obj 517 265 s \$0-high_cymbal_highpass_r;
#X obj 773 265 s \$0-tambourine_length_r;
#X obj 933 265 s \$0-splash_depth_r;
#X obj 1239 265 s \$0-vibraslap_decay_r;
#X obj 467 205 s \$0-conga_high_pitch_r;
#X msg 27 244 2000;
#X obj 27 135 s \$0-hat_highpass_r;
#X msg 27 114 8000;
#X msg 157 114 500;
#X obj 157 135 s \$0-hat_width_r;
#X obj 1079 265 s \$0-cowbell_pitch_r;
#X obj 227 265 s \$0-ride_highpass_r;
#X msg 227 244 8000;
#X msg 517 244 10000;
#X msg 363 114 50;
#X msg 497 114 53;
#X msg 653 114 55;
#X msg 813 114 57;
#X msg 933 244 10;
#X msg 1079 244 74;
#X msg 1239 244 0.9;
#X msg 373 244 6000;
#X msg 773 244 200;
#X connect 0 0 1 0;
#X connect 0 0 6 0;
#X connect 0 0 5 0;
#X connect 0 0 9 0;
#X connect 0 0 10 0;
#X connect 1 0 2 0;
#X connect 5 0 4 0;
#X connect 6 0 3 0;
#X connect 9 0 8 0;
#X connect 10 0 7 0;
#X connect 11 0 34 0;
#X connect 11 0 35 0;
#X connect 11 0 41 0;
#X connect 11 0 43 0;
#X connect 11 0 42 0;
#X connect 11 0 44 0;
#X connect 16 0 19 0;
#X connect 16 0 20 0;
#X connect 16 0 22 0;
#X connect 16 0 23 0;
#X connect 19 0 17 0;
#X connect 20 0 18 0;
#X connect 22 0 21 0;
#X connect 23 0 31 0;
#X connect 24 0 32 0;
#X connect 24 0 39 0;
#X connect 24 0 48 0;
#X connect 24 0 49 0;
#X connect 24 0 40 0;
#X connect 24 0 47 0;
#X connect 24 0 46 0;
#X connect 24 0 45 0;
#X connect 32 0 25 0;
#X connect 34 0 33 0;
#X connect 35 0 36 0;
#X connect 39 0 38 0;
#X connect 40 0 27 0;
#X connect 41 0 12 0;
#X connect 42 0 13 0;
#X connect 43 0 14 0;
#X connect 44 0 15 0;
#X connect 45 0 29 0;
#X connect 46 0 37 0;
#X connect 47 0 30 0;
#X connect 48 0 26 0;
#X connect 49 0 28 0;
#X restore 34 227 pd initialize_kit;
#N canvas 77 307 564 312 initialize_mix 0;
#X msg 41 40 1;
#X obj 41 61 s \$0-snare_vol_r;
#X obj 51 81 s \$0-kick_vol_r;
#X obj 61 101 s \$0-handclap_vol_r;
#X obj 71 121 s \$0-floor_tom_vol_r;
#X obj 81 141 s \$0-hat_vol_r;
#X obj 91 161 s \$0-tom_vol_r;
#X obj 101 181 s \$0-misc_vol_r;
#X obj 111 201 s \$0-crash_vol_r;
#X obj 121 221 s \$0-ride_vol_r;
#X obj 131 241 s \$0-bongo_vol_r;
#X obj 141 261 s \$0-conga_vol_r;
#X msg 271 40 1;
#X obj 434 24 loadbang;
#X obj 271 61 s \$0-snare_pan_r;
#X obj 281 81 s \$0-kick_pan_r;
#X obj 291 101 s \$0-handclap_pan_r;
#X obj 301 121 s \$0-floor_tom_pan_r;
#X obj 311 141 s \$0-hat_pan_r;
#X obj 321 161 s \$0-tom_pan_r;
#X obj 331 181 s \$0-misc_pan_r;
#X obj 351 221 s \$0-ride_pan_r;
#X obj 341 201 s \$0-crash_pan_r;
#X obj 361 241 s \$0-bongo_pan_r;
#X obj 371 261 s \$0-conga_pan_r;
#X connect 0 0 1 0;
#X connect 0 0 2 0;
#X connect 0 0 3 0;
#X connect 0 0 4 0;
#X connect 0 0 5 0;
#X connect 0 0 6 0;
#X connect 0 0 7 0;
#X connect 0 0 8 0;
#X connect 0 0 9 0;
#X connect 0 0 10 0;
#X connect 0 0 11 0;
#X connect 12 0 14 0;
#X connect 12 0 15 0;
#X connect 12 0 16 0;
#X connect 12 0 17 0;
#X connect 12 0 18 0;
#X connect 12 0 19 0;
#X connect 12 0 20 0;
#X connect 12 0 21 0;
#X connect 12 0 22 0;
#X connect 12 0 23 0;
#X connect 12 0 24 0;
#X connect 13 0 12 0;
#X connect 13 0 0 0;
#X restore 192 227 pd initialize_mix;
#X connect 0 0 73 1;
#X connect 6 0 7 0;
#X connect 7 0 14 0;
#X connect 9 0 73 0;
#X connect 14 0 9 0;
#X connect 14 1 9 1;
#X connect 14 2 0 1;
#X connect 14 3 0 0;
#X connect 14 4 23 0;
#X connect 14 5 0 2;
#X connect 14 6 71 0;
#X connect 14 7 22 0;
#X connect 14 8 71 1;
#X connect 14 9 22 1;
#X connect 14 10 38 0;
#X connect 14 11 22 2;
#X connect 14 12 38 1;
#X connect 14 13 38 2;
#X connect 14 14 36 0;
#X connect 14 15 38 3;
#X connect 14 16 35 0;
#X connect 14 17 72 0;
#X connect 14 18 35 1;
#X connect 14 19 72 1;
#X connect 14 20 72 2;
#X connect 14 21 72 3;
#X connect 14 22 36 1;
#X connect 14 23 72 4;
#X connect 14 24 35 2;
#X connect 14 25 37 0;
#X connect 14 26 37 1;
#X connect 14 27 39 0;
#X connect 14 28 39 1;
#X connect 14 29 39 2;
#X connect 22 0 73 4;
#X connect 23 0 73 2;
#X connect 35 0 73 8;
#X connect 36 0 73 7;
#X connect 37 0 73 9;
#X connect 38 0 73 5;
#X connect 39 0 73 10;
#X connect 71 0 73 3;
#X connect 72 0 73 6;
#X connect 73 0 74 0;
#X connect 73 1 75 0;
#X coords 0 -1 1 1 760 160 2 20 20;
