#N canvas 0 23 1440 855 10;
#X obj 811 37 inlet;
#X obj 811 58 route 0 1 2 3 4, f 97;
#N canvas 452 140 562 685 midiRouting 0;
#X msg 41 98 \$2;
#X obj 41 77 t list list;
#X obj 41 161 route 0 1;
#X obj 41 140 list append;
#X obj 41 379 list prepend;
#X obj 41 400 route 0 1;
#X obj 41 596 s \$0-setFlipFlop;
#X msg 41 576 1;
#X obj 110 359 r \$0-setFlipFlop;
#X obj 41 514 t b list list;
#X msg 78 555 \$2;
#X msg 116 535 \$1;
#X obj 116 556 s \$0-setNote;
#X obj 66 451 unpack f f;
#X obj 66 492 s \$0-glideToNote;
#X obj 78 576 s \$0-triggerAttack_velocity;
#X obj 123 471 s \$0-glideToVelocity;
#X msg 66 233 0;
#X obj 66 254 s \$0-setFlipFlop;
#X obj 105 233 s \$0-triggerRelease;
#X obj 66 212 t b b, f 7;
#X text 118 159 separates note-on and note-off messages;
#X obj 41 14 inlet;
#X obj 41 119 == 0;
#X obj 288 292 loadbang;
#X msg 288 313 0;
#X obj 288 334 s \$0-setFlipFlop;
#X text 125 413 triggers either the new note envelope \, or the glide
envelope;
#X obj 41 36 usrcmidi/mono;
#X connect 0 0 23 0;
#X connect 1 0 0 0;
#X connect 1 1 3 1;
#X connect 2 0 4 0;
#X connect 2 1 20 0;
#X connect 3 0 2 0;
#X connect 4 0 5 0;
#X connect 5 0 9 0;
#X connect 5 1 13 0;
#X connect 7 0 6 0;
#X connect 8 0 4 1;
#X connect 9 0 7 0;
#X connect 9 1 10 0;
#X connect 9 2 11 0;
#X connect 10 0 15 0;
#X connect 11 0 12 0;
#X connect 13 0 14 0;
#X connect 13 1 16 0;
#X connect 17 0 18 0;
#X connect 20 0 17 0;
#X connect 20 1 19 0;
#X connect 22 0 28 0;
#X connect 23 0 3 0;
#X connect 24 0 25 0;
#X connect 25 0 26 0;
#X connect 28 0 1 0;
#X restore 811 79 pd midiRouting;
#X text 801 18 midi input;
#X text 179 43 feedback fm mono implementation;
#X obj 715 151 r \$0-triggerRelease;
#X obj 410 151 r \$0-glideToVelocity;
#X obj 540 151 r \$0-glideToNote;
#X obj 43 151 r \$0-setNote;
#X floatatom 1153 208 6 1 44100 0 - #0-feedbackDelay_r #0-feedbackDelay_s
, f 6;
#X floatatom 1131 328 4 0 10 0 - #0-feedbackMod_base_r #0-feedbackMod_base_s
, f 4;
#X text 1005 208 FEEDBACK DELAY (samples);
#N canvas 204 393 843 300 initialise 0;
#X obj 720 52 loadbang;
#X msg 10 68 1;
#X obj 10 89 s \$0-feedbackDelay_r;
#X obj 720 112 loadbang;
#X obj 160 89 s \$0-carrierGlide_r;
#X msg 160 68 10;
#X msg 340 128 1;
#X msg 480 128 1;
#X obj 720 182 loadbang;
#X obj 10 219 s \$0-feedbackMod_base_r;
#X obj 170 219 s \$0-feedbackMod_env_r;
#X obj 340 219 s \$0-modEnvAttack_r;
#X obj 340 149 s \$0-ampEnvAttack_r;
#X obj 480 149 s \$0-ampEnvRelease_r;
#X obj 480 219 s \$0-modEnvDecay_r;
#X msg 340 198 10;
#X msg 480 198 1000;
#X msg 10 198 0.1;
#X msg 170 198 0.2;
#X msg 600 198 1;
#X obj 600 219 s \$0-retrigger_r;
#X connect 0 0 1 0;
#X connect 0 0 5 0;
#X connect 1 0 2 0;
#X connect 3 0 7 0;
#X connect 3 0 6 0;
#X connect 5 0 4 0;
#X connect 6 0 12 0;
#X connect 7 0 13 0;
#X connect 8 0 17 0;
#X connect 8 0 18 0;
#X connect 8 0 16 0;
#X connect 8 0 15 0;
#X connect 8 0 19 0;
#X connect 15 0 11 0;
#X connect 16 0 14 0;
#X connect 17 0 9 0;
#X connect 18 0 10 0;
#X connect 19 0 20 0;
#X restore 1064 391 pd initialise;
#X floatatom 1153 228 5 0 1000 0 - #0-carrierGlide_r #0-carrierGlide_s
, f 5;
#X text 1041 228 CARRIER GLIDE (ms);
#X floatatom 1153 258 5 1 10000 0 - #0-ampEnvAttack_r #0-ampEnvAttack_s
, f 5;
#X floatatom 1153 278 5 0 10 0 - #0-ampEnvRelease_r #0-ampEnvRelease_s
, f 5;
#X text 1113 258 ATTACK;
#X text 1107 278 RELEASE;
#X floatatom 1153 308 5 1 10000 0 - #0-modEnvAttack_r #0-modEnvAttack_s
, f 5;
#X floatatom 1153 348 5 0 10000 0 - #0-modEnvDecay_r #0-modEnvDecay_s
, f 5;
#X text 1113 308 ATTACK;
#X text 1103 328 BASE;
#X floatatom 1180 328 4 0 10 0 - #0-feedbackMod_env_r #0-feedbackMod_env_s
, f 4;
#X text 1158 328 ENV;
#X obj 1000 249 cnv 2 210 2 empty empty empty 20 12 0 14 -1 -66577
0;
#X obj 1000 299 cnv 2 210 2 empty empty empty 20 12 0 14 -1 -66577
0;
#X text 146 130 note on;
#X text 474 130 note transition;
#X text 745 130 note off;
#X obj 43 172 mtof;
#X obj 130 172 / 127;
#X obj 130 193 pow 4;
#X obj 130 214 / 2;
#X obj 130 235 + 0.5;
#X obj 130 356 pack f f;
#X obj 175 335 r \$0-ampEnvAttack_s;
#X obj 410 543 line~;
#X obj 143 676 *~, f 45;
#X obj 143 697 outlet~;
#X obj 410 172 / 127;
#X obj 410 193 pow 4;
#X obj 410 214 / 2;
#X obj 410 235 + 0.5;
#X obj 410 306 pack f f;
#X obj 455 285 r \$0-carrierGlide_s;
#X obj 540 172 mtof;
#X obj 540 193 pack f f;
#X obj 585 172 r \$0-carrierGlide_s;
#X msg 715 172 0;
#X obj 715 193 pack f f;
#X obj 760 172 r \$0-ampEnvRelease_s;
#X obj 130 151 r \$0-triggerAttack_velocity;
#X obj 143 543 line~;
#X msg 43 193 \$1 5;
#X obj 275 378 r \$0-modEnvAttack_s;
#X obj 238 378 f;
#X obj 130 256 t f b, f 17;
#X obj 252 564 r \$0-feedbackMod_base_s;
#X obj 237 585 +~;
#X obj 253 356 r \$0-feedbackMod_env_s;
#X text 1119 348 DECAY;
#X obj 313 398 r \$0-modEnvDecay_s;
#X obj 238 429 pack f f f, f 13;
#X obj 237 543 vline~;
#X msg 238 450 \$1 \$2 \, 0 \$3 \$2;
#X obj 332 593 r \$0-feedbackDelay_s;
#X msg 332 614 \$1 10;
#X obj 332 635 line~;
#X text 1029 336 RETRIGGER;
#X text 1029 351 ON GLIDE;
#X obj 1007 344 tgl 15 0 \$0-retrigger_s \$0-retrigger_r empty 17 7
0 10 -262144 -1 -1 1 1;
#X text 1005 268 AMPLITUDE ENV;
#X text 1005 308 FEEDBACK MOD ENV;
#X obj 410 256 t f b;
#X obj 261 272 spigot;
#X obj 294 251 r \$0-retrigger_s;
#X obj 143 653 uoscil/headless/feedbackpmsinosc;
#X connect 0 0 1 0;
#X connect 1 0 2 0;
#X connect 5 0 49 0;
#X connect 6 0 40 0;
#X connect 7 0 46 0;
#X connect 8 0 30 0;
#X connect 30 0 54 0;
#X connect 31 0 32 0;
#X connect 32 0 33 0;
#X connect 33 0 34 0;
#X connect 34 0 57 0;
#X connect 35 0 37 0;
#X connect 36 0 35 1;
#X connect 37 0 38 1;
#X connect 38 0 39 0;
#X connect 40 0 41 0;
#X connect 41 0 42 0;
#X connect 42 0 43 0;
#X connect 43 0 74 0;
#X connect 44 0 37 0;
#X connect 45 0 44 1;
#X connect 46 0 47 0;
#X connect 47 0 53 0;
#X connect 48 0 47 1;
#X connect 49 0 50 0;
#X connect 50 0 37 0;
#X connect 51 0 50 1;
#X connect 52 0 31 0;
#X connect 53 0 77 0;
#X connect 54 0 53 0;
#X connect 55 0 63 1;
#X connect 56 0 63 0;
#X connect 57 0 35 0;
#X connect 57 1 56 0;
#X connect 58 0 59 1;
#X connect 59 0 77 1;
#X connect 60 0 56 1;
#X connect 62 0 63 2;
#X connect 63 0 65 0;
#X connect 64 0 59 0;
#X connect 65 0 64 0;
#X connect 66 0 67 0;
#X connect 67 0 68 0;
#X connect 68 0 77 2;
#X connect 74 0 44 0;
#X connect 74 1 75 0;
#X connect 75 0 56 0;
#X connect 76 0 75 1;
#X connect 77 0 38 0;
#X coords 0 -1 1 1 210 170 2 1000 200;
