#N canvas 0 23 1440 855 10;
#X obj 113 256 poly 12 1, f 10;
#X obj 158 321 mtof;
#X obj 113 345 pack f f;
#X obj 220 321 > 0;
#X obj 175 345 pack f f;
#X obj 113 300 - 1;
#X obj 135 458 stripnote, f 10;
#X obj 135 479 poly 12 1, f 10;
#X obj 135 501 - 1;
#X obj 180 534 mtof;
#X obj 135 558 pack f f;
#X obj 214 558 pack f f;
#X msg 259 534 1;
#X obj 214 517 t f b;
#X obj 214 487 t f b;
#X msg 259 504 0;
#X obj 214 461 pipe;
#X text 192 422 length of 'perc';
#X msg 235 439 20;
#N canvas 318 247 642 446 drawbars 0;
#X msg 30 381 all \$1 \$2;
#X msg 30 256 0 \$1;
#X msg 70 256 1 \$1;
#X msg 110 256 2 \$1;
#X msg 150 256 4 \$1;
#X msg 190 256 5 \$1;
#X msg 230 256 6 \$1;
#X msg 270 256 7 \$1;
#X msg 310 256 8 \$1;
#X msg 350 256 9 \$1;
#X obj 539 83 loadbang;
#X obj 30 403 outlet;
#X msg 509 83 127;
#X obj 30 102 vsl 30 35 0 127 0 0 empty empty empty 0 -9 0 10 -262144
-1 -1 3400 1;
#X obj 60 102 vsl 30 35 0 127 0 0 empty empty empty 0 -9 0 10 -262144
-1 -1 0 1;
#X obj 90 102 vsl 30 35 0 127 0 0 empty empty empty 0 -9 0 10 -262144
-1 -1 0 1;
#X obj 120 102 vsl 30 35 0 127 0 0 empty empty empty 0 -9 0 10 -262144
-1 -1 0 1;
#X obj 150 102 vsl 30 35 0 127 0 0 empty empty empty 0 -9 0 10 -262144
-1 -1 0 1;
#X obj 180 102 vsl 30 35 0 127 0 0 empty empty empty 0 -9 0 10 -262144
-1 -1 0 1;
#X obj 210 102 vsl 30 35 0 127 0 0 empty empty empty 0 -9 0 10 -262144
-1 -1 0 1;
#X obj 240 102 vsl 30 35 0 127 0 0 empty empty empty 0 -9 0 10 -262144
-1 -1 0 1;
#X obj 270 102 vsl 30 35 0 127 0 0 empty empty empty 0 -9 0 10 -262144
-1 -1 0 1;
#X obj 30 234 pow 4;
#X obj 30 212 / 127;
#X obj 70 234 pow 4;
#X obj 70 212 / 127;
#X obj 110 234 pow 4;
#X obj 110 212 / 127;
#X obj 150 234 pow 4;
#X obj 150 212 / 127;
#X obj 190 234 pow 4;
#X obj 190 212 / 127;
#X obj 230 234 pow 4;
#X obj 230 212 / 127;
#X obj 270 234 pow 4;
#X obj 270 212 / 127;
#X obj 310 234 pow 4;
#X obj 310 212 / 127;
#X obj 350 234 pow 4;
#X obj 350 212 / 127;
#X obj 30 28 route 9 10 11 12 13 14 15 16 17, f 46;
#X obj 30 4 inlet;
#X connect 0 0 11 0;
#X connect 1 0 0 0;
#X connect 2 0 0 0;
#X connect 3 0 0 0;
#X connect 4 0 0 0;
#X connect 5 0 0 0;
#X connect 6 0 0 0;
#X connect 7 0 0 0;
#X connect 8 0 0 0;
#X connect 9 0 0 0;
#X connect 10 0 12 0;
#X connect 12 0 13 0;
#X connect 13 0 23 0;
#X connect 14 0 25 0;
#X connect 15 0 27 0;
#X connect 16 0 29 0;
#X connect 17 0 31 0;
#X connect 18 0 33 0;
#X connect 19 0 35 0;
#X connect 20 0 37 0;
#X connect 21 0 39 0;
#X connect 22 0 1 0;
#X connect 23 0 22 0;
#X connect 24 0 2 0;
#X connect 25 0 24 0;
#X connect 26 0 3 0;
#X connect 27 0 26 0;
#X connect 28 0 4 0;
#X connect 29 0 28 0;
#X connect 30 0 5 0;
#X connect 31 0 30 0;
#X connect 32 0 6 0;
#X connect 33 0 32 0;
#X connect 34 0 7 0;
#X connect 35 0 34 0;
#X connect 36 0 8 0;
#X connect 37 0 36 0;
#X connect 38 0 9 0;
#X connect 39 0 38 0;
#X connect 40 0 13 0;
#X connect 40 1 14 0;
#X connect 40 2 15 0;
#X connect 40 3 16 0;
#X connect 40 4 17 0;
#X connect 40 5 18 0;
#X connect 40 6 19 0;
#X connect 40 7 20 0;
#X connect 40 8 21 0;
#X connect 41 0 40 0;
#X coords 0 -1 1 1 270 40 2 30 100;
#X restore 450 445 pd drawbars;
#N canvas 694 197 455 499 pitchBend 0;
#X obj 93 293 outlet~;
#X msg 148 137 \$1 5000;
#X obj 148 158 line~;
#X obj 148 201 osc~;
#X obj 93 218 *~;
#X obj 250 171 / 8192;
#X obj 307 171 / 8192;
#X obj 307 193 / 2;
#X obj 307 215 + 0.5;
#X obj 250 149 moses 8192;
#X obj 250 193 / 3;
#X obj 250 215 + 0.6666;
#X msg 93 155 \$1 5000;
#X obj 93 176 line~;
#X obj 93 134 / 127;
#X obj 148 116 / 127;
#X obj 148 180 *~ 6;
#X obj 93 240 /~ 50;
#X obj 93 99 inlet f;
#X text 52 81 vibrato on/off (0/127);
#X obj 250 121 inlet f;
#X text 202 71 pitch bend up/down a fifth (0-16384), f 17;
#X msg 250 237 \$1 20;
#X obj 250 259 line~;
#X connect 1 0 2 0;
#X connect 2 0 16 0;
#X connect 3 0 4 1;
#X connect 4 0 17 0;
#X connect 5 0 10 0;
#X connect 6 0 7 0;
#X connect 7 0 8 0;
#X connect 8 0 22 0;
#X connect 9 0 5 0;
#X connect 9 1 6 0;
#X connect 10 0 11 0;
#X connect 11 0 22 0;
#X connect 12 0 13 0;
#X connect 13 0 4 0;
#X connect 14 0 12 0;
#X connect 15 0 1 0;
#X connect 16 0 3 0;
#X connect 17 0 0 0;
#X connect 18 0 15 0;
#X connect 18 0 14 0;
#X connect 20 0 9 0;
#X connect 22 0 23 0;
#X connect 23 0 0 0;
#X restore 362 309 pd pitchBend;
#X obj 113 38 inlet;
#N canvas 486 177 642 446 drawbars 0;
#X msg 30 381 all \$1 \$2;
#X msg 30 256 0 \$1;
#X msg 70 256 1 \$1;
#X msg 110 256 2 \$1;
#X msg 150 256 4 \$1;
#X msg 190 256 5 \$1;
#X msg 230 256 6 \$1;
#X msg 270 256 7 \$1;
#X msg 310 256 8 \$1;
#X msg 350 256 9 \$1;
#X obj 539 83 loadbang;
#X obj 30 403 outlet;
#X msg 509 83 127;
#X obj 30 102 vsl 30 35 0 127 0 0 empty empty empty 0 -9 0 10 -262144
-1 -1 0 1;
#X obj 60 102 vsl 30 35 0 127 0 0 empty empty empty 0 -9 0 10 -262144
-1 -1 0 1;
#X obj 90 102 vsl 30 35 0 127 0 0 empty empty empty 0 -9 0 10 -262144
-1 -1 3400 1;
#X obj 120 102 vsl 30 35 0 127 0 0 empty empty empty 0 -9 0 10 -262144
-1 -1 0 1;
#X obj 150 102 vsl 30 35 0 127 0 0 empty empty empty 0 -9 0 10 -262144
-1 -1 0 1;
#X obj 180 102 vsl 30 35 0 127 0 0 empty empty empty 0 -9 0 10 -262144
-1 -1 0 1;
#X obj 210 102 vsl 30 35 0 127 0 0 empty empty empty 0 -9 0 10 -262144
-1 -1 0 1;
#X obj 240 102 vsl 30 35 0 127 0 0 empty empty empty 0 -9 0 10 -262144
-1 -1 0 1;
#X obj 270 102 vsl 30 35 0 127 0 0 empty empty empty 0 -9 0 10 -262144
-1 -1 0 1;
#X obj 30 234 pow 4;
#X obj 30 212 / 127;
#X obj 70 234 pow 4;
#X obj 70 212 / 127;
#X obj 110 234 pow 4;
#X obj 110 212 / 127;
#X obj 150 234 pow 4;
#X obj 150 212 / 127;
#X obj 190 234 pow 4;
#X obj 190 212 / 127;
#X obj 230 234 pow 4;
#X obj 230 212 / 127;
#X obj 270 234 pow 4;
#X obj 270 212 / 127;
#X obj 310 234 pow 4;
#X obj 310 212 / 127;
#X obj 350 234 pow 4;
#X obj 350 212 / 127;
#X obj 30 28 route 0 1 2 3 4 5 6 7 8, f 46;
#X obj 30 4 inlet;
#X connect 0 0 11 0;
#X connect 1 0 0 0;
#X connect 2 0 0 0;
#X connect 3 0 0 0;
#X connect 4 0 0 0;
#X connect 5 0 0 0;
#X connect 6 0 0 0;
#X connect 7 0 0 0;
#X connect 8 0 0 0;
#X connect 9 0 0 0;
#X connect 10 0 12 0;
#X connect 12 0 15 0;
#X connect 13 0 23 0;
#X connect 14 0 25 0;
#X connect 15 0 27 0;
#X connect 16 0 29 0;
#X connect 17 0 31 0;
#X connect 18 0 33 0;
#X connect 19 0 35 0;
#X connect 20 0 37 0;
#X connect 21 0 39 0;
#X connect 22 0 1 0;
#X connect 23 0 22 0;
#X connect 24 0 2 0;
#X connect 25 0 24 0;
#X connect 26 0 3 0;
#X connect 27 0 26 0;
#X connect 28 0 4 0;
#X connect 29 0 28 0;
#X connect 30 0 5 0;
#X connect 31 0 30 0;
#X connect 32 0 6 0;
#X connect 33 0 32 0;
#X connect 34 0 7 0;
#X connect 35 0 34 0;
#X connect 36 0 8 0;
#X connect 37 0 36 0;
#X connect 38 0 9 0;
#X connect 39 0 38 0;
#X connect 40 0 13 0;
#X connect 40 1 14 0;
#X connect 40 2 15 0;
#X connect 40 3 16 0;
#X connect 40 4 17 0;
#X connect 40 5 18 0;
#X connect 40 6 19 0;
#X connect 40 7 20 0;
#X connect 40 8 21 0;
#X connect 41 0 40 0;
#X coords 0 -1 1 1 270 40 2 30 100;
#X restore 450 405 pd drawbars;
#X obj 37 423 loadbang;
#X obj 113 220 unpack f f;
#X text 95 20 (note \, velocity);
#X obj 503 367 inlet;
#X text 481 338 korgNano pots;
#X text 491 351 (optional);
#X obj 113 59 route 0 1 2 3 4, f 39;
#X obj 159 134 s \$0-pitch_bend_r;
#X obj 297 84 s \$0-vibrato_on_r;
#N canvas 767 130 586 272 initialize 0;
#X obj 520 88 loadbang;
#X msg 170 104 0;
#X msg 54 104 0;
#X msg 282 104 8192;
#X obj 170 125 s \$0-vibrato_on_r;
#X obj 282 125 s \$0-pitch_bend_r;
#X obj 54 125 s \$0-mod_wheel_r;
#X connect 0 0 1 0;
#X connect 0 0 2 0;
#X connect 0 0 3 0;
#X connect 1 0 4 0;
#X connect 2 0 6 0;
#X connect 3 0 5 0;
#X restore 660 46 pd initialize;
#X obj 362 288 r \$0-vibrato_on_s;
#X obj 473 293 r \$0-pitch_bend_s;
#X obj 730 407 vsl 10 75 0 16384 0 0 \$0-pitch_bend_s \$0-pitch_bend_r
empty 0 -9 0 10 -262144 -260097 -1 3700 1;
#X obj 740 407 vsl 10 75 0 127 0 0 \$0-mod_wheel_s \$0-mod_wheel_r
empty 0 -9 0 10 -262144 -260097 -1 7400 1;
#X obj 750 405 tgl 15 0 \$0-vibrato_on_s \$0-vibrato_on_r empty 17
7 0 10 -262144 -1 -1 0 127;
#X obj 205 114 s \$0-mod_wheel_r;
#X obj 113 645 outlet~;
#X text 589 130 mod wheel currently unassigned. pitch bend and pedal
vibrato are active.;
#X obj 274 245 r \$0-mod_wheel_s;
#N canvas 315 106 450 300 detune 1;
#X obj 105 56 inlet;
#X obj 105 119 outlet;
#X msg 105 98 all \$1;
#X obj 105 77 / 31;
#X connect 0 0 3 0;
#X connect 2 0 1 0;
#X connect 3 0 2 0;
#X restore 274 266 pd detune;
#X obj 113 368 clone headless/organvoice \$1, f 42;
#X obj 135 611 clone headless/organvoice \$1, f 47;
#X connect 0 0 5 0;
#X connect 0 1 1 0;
#X connect 0 2 3 0;
#X connect 1 0 2 1;
#X connect 2 0 43 0;
#X connect 3 0 4 1;
#X connect 4 0 43 1;
#X connect 5 0 2 0;
#X connect 5 0 4 0;
#X connect 6 0 7 0;
#X connect 6 1 7 1;
#X connect 7 0 8 0;
#X connect 7 1 9 0;
#X connect 8 0 10 0;
#X connect 8 0 13 0;
#X connect 8 0 16 0;
#X connect 9 0 10 1;
#X connect 10 0 44 0;
#X connect 11 0 44 1;
#X connect 12 0 11 1;
#X connect 13 0 11 0;
#X connect 13 1 12 0;
#X connect 14 0 11 0;
#X connect 14 1 15 0;
#X connect 15 0 11 1;
#X connect 16 0 14 0;
#X connect 18 0 16 1;
#X connect 19 0 43 3;
#X connect 20 0 43 4;
#X connect 20 0 44 4;
#X connect 21 0 29 0;
#X connect 22 0 44 3;
#X connect 23 0 18 0;
#X connect 24 0 0 0;
#X connect 24 0 6 0;
#X connect 24 1 0 1;
#X connect 24 1 6 1;
#X connect 26 0 19 0;
#X connect 26 0 22 0;
#X connect 29 0 24 0;
#X connect 29 1 30 0;
#X connect 29 2 38 0;
#X connect 29 4 31 0;
#X connect 33 0 20 0;
#X connect 34 0 20 1;
#X connect 41 0 42 0;
#X connect 42 0 43 2;
#X connect 42 0 44 2;
#X connect 43 0 39 0;
#X connect 44 0 39 0;
#X coords 0 -1 1 1 320 90 2 450 400;
