#N canvas 3 23 1437 855 10;
#X obj 103 160 poly 12 1, f 33;
#X obj 103 387 pack f f;
#X obj 148 294 mtof;
#X obj 173 388 pack f f;
#X msg 313 388 \$1 bang;
#X msg 453 388 all \$1;
#X msg 523 388 all \$1;
#X msg 663 388 all \$1;
#X obj 383 388 pack f f, f 10;
#X text 456 369 attack;
#X text 526 369 decay;
#X text 662 368 release;
#X text 381 368 velocity;
#X obj 103 251 unpack f f, f 8;
#X msg 103 229 \$1 \$2;
#X msg 593 388 \$1 bang;
#X obj 383 220 unpack f f f, f 10;
#X text 172 366 mod freq;
#X text 86 366 carrier freq;
#X msg 803 388 all \$1;
#X msg 873 388 all \$1;
#X text 806 366 attack;
#X text 876 366 decay;
#X msg 733 388 \$1 bang;
#X text 734 368 trigger;
#X obj 103 204 t list list list list, f 33;
#X obj 243 345 / 64;
#X msg 943 388 all \$1;
#X text 503 285 envelope 1 - adr;
#X text 301 368 note on/trig;
#X text 575 368 note off/trig;
#X text 766 283 envelope 2 - ad \, set to mod index;
#X msg 243 366 \$1 100;
#X obj 243 388 line~;
#X obj 103 624 outlet~;
#X obj 400 562 vsl 50 55 1 500 0 0 \$0-attack_s \$0-attack_r empty
0 -9 0 10 -262144 -260097 -1 97 1;
#X text 406 583 ATTACK;
#X obj 450 562 vsl 50 55 50 20000 0 0 \$0-decay_s \$0-decay_r empty
0 -9 0 10 -262144 -260097 -1 5400 1;
#X text 459 583 DECAY;
#X obj 500 562 vsl 50 55 10 1000 0 0 \$0-release_s \$0-release_r empty
0 -9 0 10 -262144 -260097 -1 218 1;
#X text 503 583 RELEASE;
#X obj 550 582 vsl 50 55 1 5000 0 0 \$0-mod_attack_s \$0-mod_attack_r
empty 0 -9 0 10 -262144 -260097 -1 0 1;
#X text 556 603 ATTACK;
#X obj 600 582 vsl 50 55 1 5000 0 0 \$0-mod_decay_s \$0-mod_decay_r
empty 0 -9 0 10 -262144 -260097 -1 215 1;
#X text 609 603 DECAY;
#X text 466 622 amp envelope;
#X text 560 562 mod index env;
#X floatatom 436 623 3 0 0 0 - #0-ratio_r #0-ratio_s, f 3;
#X text 402 622 ratio;
#X obj 103 138 unpack f f, f 33;
#X obj 453 343 r \$0-attack_s;
#X obj 523 323 r \$0-decay_s;
#X obj 663 343 r \$0-release_s;
#X obj 803 343 r \$0-mod_attack_s;
#X obj 873 323 r \$0-mod_decay_s;
#X obj 218 311 *;
#X obj 233 289 r \$0-ratio_s;
#N canvas 0 23 450 300 pitchBend 0;
#X obj 165 89 / 8192;
#X obj 222 89 / 8192;
#X obj 222 111 / 2;
#X obj 222 133 + 0.5;
#X obj 165 67 moses 8192;
#X obj 165 111 / 3;
#X obj 165 133 + 0.6666;
#X msg 165 155 \$1 20;
#X obj 165 177 line~;
#X obj 165 199 outlet~;
#X obj 165 45 inlet;
#X connect 0 0 5 0;
#X connect 1 0 2 0;
#X connect 2 0 3 0;
#X connect 3 0 7 0;
#X connect 4 0 0 0;
#X connect 4 1 1 0;
#X connect 5 0 6 0;
#X connect 6 0 7 0;
#X connect 7 0 8 0;
#X connect 8 0 9 0;
#X connect 10 0 4 0;
#X restore 1084 382 pd pitchBend;
#X obj 1013 389 sig~ 1;
#X obj 943 367 / 30;
#X obj 440 255 expr pow(($f1 / 127) \, 2);
#N canvas 165 214 684 300 initialize 0;
#X obj 548 106 loadbang;
#X msg 280 122 50;
#X msg 200 122 20000;
#X obj 110 144 s \$0-attack_r;
#X msg 110 122 10;
#X obj 200 144 s \$0-decay_r;
#X obj 280 144 s \$0-release_r;
#X obj 380 144 s \$0-mod_attack_r;
#X obj 490 144 s \$0-mod_decay_r;
#X obj 20 144 s \$0-ratio_r;
#X msg 20 122 1;
#X msg 380 122 1;
#X msg 490 122 200;
#X obj 548 176 loadbang;
#X obj 20 214 s \$0-pitch_bend_r;
#X msg 20 192 8192;
#X msg 140 192 0;
#X msg 270 192 0;
#X msg 390 192 0;
#X obj 390 214 s \$0-detune_on_r;
#X obj 270 214 s \$0-modEnvPeak_r;
#X obj 140 214 s \$0-baseModIndex_r;
#X msg 500 192 0.25;
#X obj 500 214 s \$0-LFO_r;
#X connect 0 0 4 0;
#X connect 0 0 2 0;
#X connect 0 0 1 0;
#X connect 0 0 11 0;
#X connect 0 0 12 0;
#X connect 0 0 10 0;
#X connect 1 0 6 0;
#X connect 2 0 5 0;
#X connect 4 0 3 0;
#X connect 10 0 9 0;
#X connect 11 0 7 0;
#X connect 12 0 8 0;
#X connect 13 0 15 0;
#X connect 13 0 16 0;
#X connect 13 0 17 0;
#X connect 13 0 18 0;
#X connect 13 0 22 0;
#X connect 15 0 14 0;
#X connect 16 0 21 0;
#X connect 17 0 20 0;
#X connect 18 0 19 0;
#X connect 22 0 23 0;
#X restore 857 611 pd initialize;
#X obj 103 45 inlet;
#X obj 103 66 route 0 1 2 3 4, f 110;
#X text 85 27 keyrig input;
#X obj 628 88 s \$0-detune_on_r;
#X obj 497 88 s \$0-modEnvPeak_r;
#X obj 365 88 s \$0-baseModIndex_r;
#X obj 234 88 s \$0-pitch_bend_r;
#X obj 660 577 vsl 15 60 0 16384 0 0 \$0-pitch_bend_s \$0-pitch_bend_r
empty 0 -9 0 10 -262144 -260097 -1 2950 1;
#X obj 675 577 vsl 15 60 0 127 0 0 \$0-baseModIndex_s \$0-baseModIndex_r
empty 0 -9 0 10 -262144 -260097 -1 0 1;
#X obj 690 577 vsl 15 60 0 127 0 0 \$0-modEnvPeak_s \$0-modEnvPeak_r
empty 0 -9 0 10 -262144 -260097 -1 0 1;
#X obj 660 560 tgl 15 0 \$0-detune_on_s \$0-detune_on_r empty 17 7
0 10 -262144 -1 -1 0 1;
#X obj 243 325 r \$0-baseModIndex_s;
#X obj 943 347 r \$0-modEnvPeak_s;
#X obj 1084 339 r \$0-pitch_bend_s;
#X obj 1207 380 r \$0-detune_on_s;
#X obj 103 182 uutil/headless/noteonoffseparator;
#N canvas 488 117 438 480 LFO 0;
#X obj 68 174 outlet~;
#X text 153 72 on/off (0/127);
#X obj 153 93 inlet;
#X obj 68 153 *~;
#X obj 153 137 line~;
#X msg 153 116 \$1 200;
#X obj 68 23 inlet;
#X msg 68 44 \$1 20;
#X obj 68 65 osc~;
#X obj 68 86 +~ 1;
#X obj 68 107 /~ 16;
#X obj 68 128 +~ 1;
#X text 106 20 LFO frequency;
#X connect 2 0 5 0;
#X connect 3 0 0 0;
#X connect 4 0 3 1;
#X connect 5 0 4 0;
#X connect 6 0 7 0;
#X connect 7 0 8 0;
#X connect 8 0 9 0;
#X connect 9 0 10 0;
#X connect 10 0 11 0;
#X connect 11 0 3 0;
#X restore 1174 402 pd LFO;
#X floatatom 679 560 4 0 1 0 - #0-LFO_r #0-LFO_s, f 4;
#X obj 1174 359 r \$0-LFO_s;
#X obj 103 418 clone headless/pmvoice 12, f 164;
#X connect 0 0 77 0;
#X connect 0 1 77 1;
#X connect 0 2 77 2;
#X connect 1 0 81 0;
#X connect 2 0 1 1;
#X connect 2 0 55 0;
#X connect 3 0 81 1;
#X connect 4 0 81 3;
#X connect 5 0 81 5;
#X connect 6 0 81 6;
#X connect 7 0 81 8;
#X connect 8 0 81 4;
#X connect 13 0 1 0;
#X connect 13 0 3 0;
#X connect 13 1 2 0;
#X connect 14 0 13 0;
#X connect 15 0 81 7;
#X connect 16 0 8 0;
#X connect 16 2 60 0;
#X connect 19 0 81 10;
#X connect 20 0 81 11;
#X connect 23 0 81 9;
#X connect 25 0 14 0;
#X connect 25 1 4 0;
#X connect 25 2 16 0;
#X connect 25 3 23 0;
#X connect 26 0 32 0;
#X connect 27 0 81 12;
#X connect 32 0 33 0;
#X connect 33 0 81 2;
#X connect 49 0 0 0;
#X connect 49 1 0 1;
#X connect 50 0 5 0;
#X connect 51 0 6 0;
#X connect 52 0 7 0;
#X connect 53 0 19 0;
#X connect 54 0 20 0;
#X connect 55 0 3 1;
#X connect 56 0 55 1;
#X connect 57 0 81 14;
#X connect 58 0 81 13;
#X connect 59 0 27 0;
#X connect 60 0 8 1;
#X connect 62 0 63 0;
#X connect 63 0 49 0;
#X connect 63 1 68 0;
#X connect 63 2 67 0;
#X connect 63 3 66 0;
#X connect 63 4 65 0;
#X connect 73 0 26 0;
#X connect 74 0 59 0;
#X connect 75 0 57 0;
#X connect 76 0 78 1;
#X connect 77 0 25 0;
#X connect 77 1 15 0;
#X connect 78 0 81 14;
#X connect 80 0 78 0;
#X connect 81 0 34 0;
#X coords 0 -1 1 1 310 80 2 400 560;
