#N canvas 0 23 1440 855 10;
#X obj 532 176 poly 12 1, f 33;
#X obj 147 107 bng 30 250 50 0 \$0-load_sample_s \$0-load_sample_r
empty 17 7 0 10 -262144 -1 -1;
#X msg 829 453 all \$1;
#X obj 532 219 unpack f f f;
#X obj 631 290 pack f f, f 12;
#X obj 730 454 pack f f;
#X obj 775 432 mtof;
#X msg 532 453 \$1 bang;
#X obj 433 301 openpanel;
#X msg 433 453 all symbol \$1;
#X obj 700 269 expr ($f1 / 127);
#X obj 532 154 unpack f f, f 33;
#X obj 433 606 outlet~;
#X obj 532 93 inlet;
#X obj 433 279 r \$0-load_sample_s;
#X text 119 107 load;
#X obj 566 134 s \$0-cutoff_r;
#X obj 988 281 r \$0-cutoff_s;
#N canvas 560 525 732 277 initialize 0;
#X obj 100 55 loadbang;
#X obj 320 92 s \$0-cutoff_r;
#X msg 190 71 0.99;
#X obj 190 92 s \$0-decay_factor_r;
#X msg 320 71 100;
#X obj 420 92 s \$0-cutoffHighPass_r;
#X msg 560 71 4;
#X obj 560 92 s \$0-stagesHighPass_r;
#X msg 420 71 30;
#X connect 0 0 4 0;
#X connect 0 0 2 0;
#X connect 0 0 8 0;
#X connect 0 0 6 0;
#X connect 2 0 3 0;
#X connect 4 0 1 0;
#X connect 6 0 7 0;
#X connect 8 0 5 0;
#X restore 707 77 pd initialize;
#X floatatom 273 107 5 0 127 0 - #0-cutoff_r #0-cutoff_s, f 5;
#X text 107 121 sample;
#X floatatom 267 122 6 0 0.9999 0 - #0-decay_factor_r #0-decay_factor_s
, f 6;
#X obj 829 259 r \$0-decay_factor_s;
#X text 191 122 decay factor;
#X text 185 107 cutoff [0-127];
#X obj 928 453 pack f f;
#X obj 973 409 mtof;
#X obj 973 432 *;
#X obj 988 302 expr ($f1/16);
#X floatatom 256 158 6 0 1000 0 - #0-cutoffHighPass_r #0-cutoffHighPass_s
, f 6;
#X text 186 158 cutoff [Hz];
#X floatatom 152 158 4 0 4 0 - #0-stagesHighPass_r #0-stagesHighPass_s
, f 4;
#X text 112 158 stages;
#X text 135 142 high pass filter chain;
#X obj 572 559 r \$0-stagesHighPass_s;
#X obj 712 559 r \$0-cutoffHighPass_s;
#X obj 532 114 route 0 1 2 3 4;
#X text 514 74 keyrig input;
#X obj 433 585 ufilter/headless/filterchainhp, f 47;
#X obj 532 197 uutil/headless/noteonoffseparator;
#X obj 433 474 clone headless/resonantsamplervoice 12, f 83;
#X connect 0 0 39 0;
#X connect 0 1 39 1;
#X connect 0 2 39 2;
#X connect 2 0 40 4;
#X connect 3 0 7 0;
#X connect 3 0 4 0;
#X connect 3 0 5 0;
#X connect 3 0 25 0;
#X connect 3 1 6 0;
#X connect 3 1 26 0;
#X connect 3 2 10 0;
#X connect 4 0 40 2;
#X connect 5 0 40 3;
#X connect 6 0 5 1;
#X connect 7 0 40 1;
#X connect 8 0 9 0;
#X connect 9 0 40 0;
#X connect 10 0 4 1;
#X connect 11 0 0 0;
#X connect 11 1 0 1;
#X connect 13 0 36 0;
#X connect 14 0 8 0;
#X connect 17 0 28 0;
#X connect 22 0 2 0;
#X connect 25 0 40 5;
#X connect 26 0 27 0;
#X connect 27 0 25 1;
#X connect 28 0 27 1;
#X connect 34 0 38 1;
#X connect 35 0 38 2;
#X connect 36 0 11 0;
#X connect 36 2 16 0;
#X connect 38 0 12 0;
#X connect 39 0 3 0;
#X connect 40 0 38 0;
#X coords 0 -1 1 1 210 80 2 100 100;
