#N canvas 628 23 812 855 10;
#X obj 432 572 openpanel;
#X obj 432 552 r \$0-open_source_file_s;
#X obj 216 110 bng 30 250 50 0 \$0-open_source_file_s \$0-open_source_file_r
empty 17 7 0 10 -262144 -1 -1;
#X obj 439 22 inlet;
#X obj 439 43 route 0 1 2 3 4, f 27;
#X obj 439 104 unpack f f, f 33;
#X obj 439 167 s \$0-note_triggers;
#X obj 129 654 outlet~;
#X obj 432 654 outlet~;
#X obj 129 233 r \$0-note_triggers;
#X obj 184 304 r \$0-centre_pitch_s;
#X floatatom 153 125 6 0 0 0 - #0-centre_pitch_r #0-centre_pitch_s
, f 6;
#X text 251 103 load;
#X text 251 118 source;
#X text 251 133 sample;
#X text 105 110 original/centre;
#X text 105 125 pitch;
#N canvas 225 406 450 300 initialize 1;
#X obj 274 69 loadbang;
#X msg 44 85 60;
#X obj 44 106 s \$0-centre_pitch_r;
#X msg 184 85 0;
#X obj 184 106 s \$0-pedal_on;
#X connect 0 0 1 0;
#X connect 0 0 3 0;
#X connect 1 0 2 0;
#X connect 3 0 4 0;
#X restore 113 33 pd initialize;
#X text 197 325 +/- semitones;
#X obj 163 324 -, f 4;
#X obj 163 345 expr pow(pow(2.00 \, 1.00/12.00) \, $f1);
#X text 170 365 speed multiplier;
#X msg 432 593 all symbol \$1;
#X obj 129 254 unpack f f f;
#X obj 129 413 pack f f f, f 12;
#X obj 634 167 s \$0-note_off_triggers;
#X obj 331 374 r \$0-note_off_triggers;
#X obj 439 146 uutil/headless/noteonoffseparator;
#X obj 566 83 s \$0-pedal_on;
#X obj 400 395 r \$0-pedal_on;
#X obj 356 523 bag;
#X msg 331 395 \$1;
#X obj 400 416 / 127;
#X obj 331 479 route 0 1;
#X obj 452 459 == 0;
#X obj 419 479 spigot;
#X obj 400 437 t f b f;
#X msg 419 500 flush;
#X msg 331 549 \$1 bang;
#X obj 331 458 list prepend;
#X obj 129 613 clone uinstrument/headless/sampletransposervoice \$1
;
#X text 60 64 initialization argument \$1 is number of voices.;
#X obj 502 63 s \$0-mod_wheel;
#X obj 240 527 r \$0-mod_wheel;
#X obj 470 83 s \$0-bend_wheel;
#X obj 230 497 r \$0-bend_wheel;
#X obj 129 634 *~;
#X obj 432 634 *~;
#N canvas 177 160 450 397 bends 0;
#X obj 105 47 inlet;
#X obj 105 309 outlet~;
#X obj 105 282 *~;
#X obj 260 47 inlet;
#X obj 105 68 / 8192;
#X obj 105 89 moses 1;
#X obj 144 109 - 1;
#X obj 260 173 osc~;
#X obj 260 68 / 127;
#X obj 260 89 pow 1.5;
#X obj 260 110 * 16;
#X msg 260 131 \$1 20;
#X obj 260 152 line~;
#X msg 105 201 \$1 20;
#X obj 105 222 line~;
#X obj 245 314 outlet~;
#X obj 245 269 *~;
#X msg 144 130 \$1 20;
#X obj 144 151 line~;
#X obj 260 248 /~ 2;
#X text 91 12 bend up for tremolo \, down for vibrato;
#X obj 260 227 -~ 1;
#X obj 245 290 +~ 1;
#X obj 105 180 expr pow(1 - $f1 \, 2);
#X obj 120 262 *~ 0.0005;
#X connect 0 0 4 0;
#X connect 2 0 1 0;
#X connect 3 0 8 0;
#X connect 4 0 5 0;
#X connect 5 0 23 0;
#X connect 5 1 6 0;
#X connect 6 0 17 0;
#X connect 7 0 21 0;
#X connect 7 0 24 0;
#X connect 8 0 9 0;
#X connect 9 0 10 0;
#X connect 10 0 11 0;
#X connect 11 0 12 0;
#X connect 12 0 7 0;
#X connect 13 0 14 0;
#X connect 14 0 2 0;
#X connect 16 0 22 0;
#X connect 17 0 18 0;
#X connect 18 0 16 0;
#X connect 19 0 16 1;
#X connect 21 0 19 0;
#X connect 22 0 15 0;
#X connect 23 0 13 0;
#X connect 24 0 2 1;
#X restore 230 568 pd bends;
#X msg 356 501 \$1 1;
#X obj 439 125 poly \$1 1, f 33;
#X connect 0 0 22 0;
#X connect 1 0 0 0;
#X connect 3 0 4 0;
#X connect 4 0 5 0;
#X connect 4 1 44 0;
#X connect 4 2 42 0;
#X connect 4 4 28 0;
#X connect 5 0 50 0;
#X connect 5 1 50 1;
#X connect 9 0 23 0;
#X connect 10 0 19 1;
#X connect 19 0 20 0;
#X connect 20 0 24 1;
#X connect 22 0 40 3;
#X connect 23 0 24 0;
#X connect 23 1 19 0;
#X connect 23 2 24 2;
#X connect 24 0 40 0;
#X connect 26 0 31 0;
#X connect 27 0 6 0;
#X connect 27 1 25 0;
#X connect 29 0 32 0;
#X connect 30 0 38 0;
#X connect 31 0 39 0;
#X connect 32 0 36 0;
#X connect 33 0 38 0;
#X connect 33 1 49 0;
#X connect 34 0 35 1;
#X connect 35 0 37 0;
#X connect 36 0 39 1;
#X connect 36 1 35 0;
#X connect 36 2 34 0;
#X connect 37 0 30 0;
#X connect 38 0 40 2;
#X connect 39 0 33 0;
#X connect 40 0 46 0;
#X connect 40 1 47 0;
#X connect 43 0 48 1;
#X connect 45 0 48 0;
#X connect 46 0 7 0;
#X connect 47 0 8 0;
#X connect 48 0 40 1;
#X connect 48 1 46 1;
#X connect 48 1 47 1;
#X connect 49 0 30 0;
#X connect 50 0 27 0;
#X connect 50 1 27 1;
#X connect 50 2 27 2;
#X coords 0 -1 1 1 200 50 2 100 100;
