#N canvas 628 23 812 855 10;
#X obj 426 472 openpanel;
#X obj 426 452 r \$0-open_source_file_s;
#X obj 216 110 bng 30 250 50 0 \$0-open_source_file_s \$0-open_source_file_r
empty 17 7 0 10 -262144 -1 -1;
#X obj 439 22 inlet;
#X obj 439 43 route 0 1 2 3 4, f 27;
#X obj 439 84 unpack f f, f 33;
#X obj 439 105 poly 8 1, f 33;
#X obj 439 147 s \$0-note_triggers;
#X obj 129 534 outlet~;
#X obj 426 534 outlet~;
#X obj 129 223 r \$0-note_triggers;
#X obj 184 294 r \$0-centre_pitch_s;
#X floatatom 153 125 6 0 0 0 - #0-centre_pitch_r #0-centre_pitch_s
, f 6;
#X text 251 103 load;
#X text 251 118 source;
#X text 251 133 sample;
#X text 105 110 original/centre;
#X text 105 125 pitch;
#N canvas 791 423 450 300 initialize 0;
#X obj 274 69 loadbang;
#X msg 44 85 60;
#X obj 44 106 s \$0-centre_pitch_r;
#X connect 0 0 1 0;
#X connect 1 0 2 0;
#X restore 113 33 pd initialize;
#X text 197 315 +/- semitones;
#X obj 163 314 -, f 4;
#X obj 163 335 expr pow(pow(2.00 \, 1.00/12.00) \, $f1);
#X text 170 355 speed multiplier;
#X msg 426 493 all symbol \$1;
#X obj 129 244 unpack f f f;
#X obj 129 403 pack f f f, f 12;
#X obj 634 147 s \$0-note_off_triggers;
#X obj 325 223 r \$0-note_off_triggers;
#X obj 439 126 uutil/headless/noteonoffseparator;
#X obj 228 447 r \$0-bend_wheel;
#X obj 470 63 s \$0-pitch_bend;
#N canvas 0 23 450 300 pitch_bend 0;
#X obj 105 80 / 8192;
#X obj 162 80 / 8192;
#X obj 162 102 / 2;
#X obj 162 124 + 0.5;
#X obj 105 58 moses 8192;
#X obj 105 102 / 3;
#X obj 105 124 + 0.6666;
#X msg 105 166 \$1 20;
#X obj 105 188 line~;
#X obj 105 37 inlet;
#X obj 105 209 outlet~;
#X obj 105 145 - 1;
#X connect 0 0 5 0;
#X connect 1 0 2 0;
#X connect 2 0 3 0;
#X connect 3 0 11 0;
#X connect 4 0 0 0;
#X connect 4 1 1 0;
#X connect 5 0 6 0;
#X connect 6 0 11 0;
#X connect 7 0 8 0;
#X connect 8 0 10 0;
#X connect 9 0 4 0;
#X connect 11 0 7 0;
#X restore 228 468 pd pitch_bend;
#X obj 129 513 clone uinstrument/headless/sampletransposervoice 8;
#X connect 0 0 23 0;
#X connect 1 0 0 0;
#X connect 3 0 4 0;
#X connect 4 0 5 0;
#X connect 4 1 30 0;
#X connect 5 0 6 0;
#X connect 5 1 6 1;
#X connect 6 0 28 0;
#X connect 6 1 28 1;
#X connect 6 2 28 2;
#X connect 10 0 24 0;
#X connect 11 0 20 1;
#X connect 20 0 21 0;
#X connect 21 0 25 1;
#X connect 23 0 32 3;
#X connect 24 0 25 0;
#X connect 24 1 20 0;
#X connect 24 2 25 2;
#X connect 25 0 32 0;
#X connect 27 0 32 2;
#X connect 28 0 7 0;
#X connect 28 1 26 0;
#X connect 29 0 31 0;
#X connect 31 0 32 1;
#X connect 32 0 8 0;
#X connect 32 1 9 0;
#X coords 0 -1 1 1 200 50 2 100 100;
